<svg width="32" height="32" viewBox="0 0 32 32" fill="none" xmlns="http://www.w3.org/2000/svg">
<path fill-rule="evenodd" clip-rule="evenodd" d="M8.53387 2.90977C9.82041 2.80705 11.0417 2.30102 12.0239 1.46375C13.1333 0.518911 14.5428 0 16 0C17.4572 0 18.8667 0.518911 19.9761 1.46375C20.9583 2.30102 22.1796 2.80705 23.4661 2.90977C24.919 3.02588 26.283 3.65571 27.3137 4.68633C28.3443 5.71696 28.9741 7.08098 29.0902 8.53387C29.1922 9.81989 29.6982 11.0419 30.5363 12.0239C31.4811 13.1333 32 14.5428 32 16C32 17.4572 31.4811 18.8667 30.5363 19.9761C29.699 20.9583 29.1929 22.1796 29.0902 23.4661C28.9741 24.919 28.3443 26.283 27.3137 27.3137C26.283 28.3443 24.919 28.9741 23.4661 29.0902C22.1796 29.1929 20.9583 29.699 19.9761 30.5363C18.8667 31.4811 17.4572 32 16 32C14.5428 32 13.1333 31.4811 12.0239 30.5363C11.0417 29.699 9.82041 29.1929 8.53387 29.0902C7.08098 28.9741 5.71696 28.3443 4.68633 27.3137C3.65571 26.283 3.02588 24.919 2.90977 23.4661C2.80705 22.1796 2.30102 20.9583 1.46375 19.9761C0.518911 18.8667 0 17.4572 0 16C0 14.5428 0.518911 13.1333 1.46375 12.0239C2.30102 11.0417 2.80705 9.82041 2.90977 8.53387C3.02588 7.08098 3.65571 5.71696 4.68633 4.68633C5.71696 3.65571 7.08098 3.02588 8.53387 2.90977ZM23.4141 13.414C23.7785 13.0367 23.98 12.5315 23.9755 12.0071C23.9709 11.4827 23.7606 10.9811 23.3898 10.6103C23.0189 10.2394 22.5173 10.0291 21.9929 10.0245C21.4685 10.02 20.9633 10.2216 20.5861 10.5859L14 17.172L11.4139 14.586C11.0367 14.2217 10.5315 14.0201 10.0071 14.0246C9.48269 14.0292 8.98106 14.2395 8.61023 14.6103C8.23941 14.9812 8.02907 15.4828 8.02451 16.0072C8.01995 16.5316 8.22155 17.0368 8.58587 17.414L12.5859 21.4141C12.961 21.789 13.4696 21.9997 14 21.9997C14.5303 21.9997 15.0389 21.789 15.414 21.4141L23.4141 13.414Z" fill="#DE7673"/>
</svg>
