<svg width="94" height="84" viewBox="0 0 94 84" fill="none" xmlns="http://www.w3.org/2000/svg">
<rect opacity="0.2" x="-3.31372" y="32.3553" width="50" height="50" rx="8" transform="rotate(-45 -3.31372 32.3553)" fill="#DE7673"/>
<g filter="url(#filter0_d_7_530)">
<circle cx="51.6863" cy="38" r="30" fill="white"/>
</g>
<path fill-rule="evenodd" clip-rule="evenodd" d="M45.6863 32V30.5C45.6863 29.3065 46.1604 28.1619 47.0043 27.318C47.8482 26.4741 48.9928 26 50.1863 26H53.1863C54.3798 26 55.5243 26.4741 56.3683 27.318C57.2122 28.1619 57.6863 29.3065 57.6863 30.5V32H60.6863C61.4819 32 62.245 32.3161 62.8076 32.8787C63.3702 33.4413 63.6863 34.2044 63.6863 35V40.355C59.8457 41.7781 55.782 42.5045 51.6863 42.5C47.5905 42.5046 43.5268 41.7782 39.6863 40.355V35C39.6863 34.2044 40.0023 33.4413 40.565 32.8787C41.1276 32.3161 41.8906 32 42.6863 32H45.6863ZM48.6863 30.5C48.6863 30.1022 48.8443 29.7206 49.1256 29.4393C49.4069 29.158 49.7885 29 50.1863 29H53.1863C53.5841 29 53.9656 29.158 54.2469 29.4393C54.5282 29.7206 54.6863 30.1022 54.6863 30.5V32H48.6863V30.5ZM50.1863 38C50.1863 37.6022 50.3443 37.2206 50.6256 36.9393C50.9069 36.658 51.2885 36.5 51.6863 36.5H51.7013C52.0991 36.5 52.4806 36.658 52.7619 36.9393C53.0432 37.2206 53.2013 37.6022 53.2013 38C53.2013 38.3978 53.0432 38.7794 52.7619 39.0607C52.4806 39.342 52.0991 39.5 51.7013 39.5H51.6863C51.2885 39.5 50.9069 39.342 50.6256 39.0607C50.3443 38.7794 50.1863 38.3978 50.1863 38Z" fill="#DE7673"/>
<path d="M39.6863 43.5381V47.0001C39.6863 47.7957 40.0023 48.5588 40.565 49.1214C41.1276 49.684 41.8906 50.0001 42.6863 50.0001H60.6863C61.4819 50.0001 62.245 49.684 62.8076 49.1214C63.3702 48.5588 63.6863 47.7957 63.6863 47.0001V43.5381C59.8198 44.8412 55.7664 45.504 51.6863 45.5001C47.4923 45.5001 43.4558 44.8101 39.6863 43.5381Z" fill="#DE7673"/>
<defs>
<filter id="filter0_d_7_530" x="9.68628" y="0" width="84" height="84" filterUnits="userSpaceOnUse" color-interpolation-filters="sRGB">
<feFlood flood-opacity="0" result="BackgroundImageFix"/>
<feColorMatrix in="SourceAlpha" type="matrix" values="0 0 0 0 0 0 0 0 0 0 0 0 0 0 0 0 0 0 127 0" result="hardAlpha"/>
<feOffset dy="4"/>
<feGaussianBlur stdDeviation="6"/>
<feComposite in2="hardAlpha" operator="out"/>
<feColorMatrix type="matrix" values="0 0 0 0 0.941176 0 0 0 0 0.941176 0 0 0 0 0.94902 0 0 0 1 0"/>
<feBlend mode="normal" in2="BackgroundImageFix" result="effect1_dropShadow_7_530"/>
<feBlend mode="normal" in="SourceGraphic" in2="effect1_dropShadow_7_530" result="shape"/>
</filter>
</defs>
</svg>
