<svg width="94" height="84" viewBox="0 0 94 84" fill="none" xmlns="http://www.w3.org/2000/svg">
<rect x="-3.31372" y="32.3553" width="50" height="50" rx="8" transform="rotate(-45 -3.31372 32.3553)" fill="#FFF9E6"/>
<g filter="url(#filter0_d_7_541)">
<circle cx="51.6863" cy="38" r="30" fill="white"/>
</g>
<path d="M39.6863 40C39.6863 39.6022 39.8443 39.2206 40.1256 38.9393C40.4069 38.658 40.7885 38.5 41.1863 38.5H44.1863C44.5841 38.5 44.9656 38.658 45.2469 38.9393C45.5282 39.2206 45.6863 39.6022 45.6863 40V47.5C45.6863 47.8978 45.5282 48.2794 45.2469 48.5607C44.9656 48.842 44.5841 49 44.1863 49H41.1863C40.7885 49 40.4069 48.842 40.1256 48.5607C39.8443 48.2794 39.6863 47.8978 39.6863 47.5V40ZM48.6863 34C48.6863 33.6022 48.8443 33.2206 49.1256 32.9393C49.4069 32.658 49.7885 32.5 50.1863 32.5H53.1863C53.5841 32.5 53.9656 32.658 54.2469 32.9393C54.5282 33.2206 54.6863 33.6022 54.6863 34V47.5C54.6863 47.8978 54.5282 48.2794 54.2469 48.5607C53.9656 48.842 53.5841 49 53.1863 49H50.1863C49.7885 49 49.4069 48.842 49.1256 48.5607C48.8443 48.2794 48.6863 47.8978 48.6863 47.5V34ZM57.6863 29.5C57.6863 29.1022 57.8443 28.7206 58.1256 28.4393C58.4069 28.158 58.7885 28 59.1863 28H62.1863C62.5841 28 62.9656 28.158 63.2469 28.4393C63.5282 28.7206 63.6863 29.1022 63.6863 29.5V47.5C63.6863 47.8978 63.5282 48.2794 63.2469 48.5607C62.9656 48.842 62.5841 49 62.1863 49H59.1863C58.7885 49 58.4069 48.842 58.1256 48.5607C57.8443 48.2794 57.6863 47.8978 57.6863 47.5V29.5Z" fill="#FFBB00"/>
<defs>
<filter id="filter0_d_7_541" x="9.68628" y="0" width="84" height="84" filterUnits="userSpaceOnUse" color-interpolation-filters="sRGB">
<feFlood flood-opacity="0" result="BackgroundImageFix"/>
<feColorMatrix in="SourceAlpha" type="matrix" values="0 0 0 0 0 0 0 0 0 0 0 0 0 0 0 0 0 0 127 0" result="hardAlpha"/>
<feOffset dy="4"/>
<feGaussianBlur stdDeviation="6"/>
<feComposite in2="hardAlpha" operator="out"/>
<feColorMatrix type="matrix" values="0 0 0 0 0.941176 0 0 0 0 0.941176 0 0 0 0 0.94902 0 0 0 1 0"/>
<feBlend mode="normal" in2="BackgroundImageFix" result="effect1_dropShadow_7_541"/>
<feBlend mode="normal" in="SourceGraphic" in2="effect1_dropShadow_7_541" result="shape"/>
</filter>
</defs>
</svg>
