<svg width="68" height="70" viewBox="0 0 68 70" fill="none" xmlns="http://www.w3.org/2000/svg">
<path d="M10.9961 31.8326C10.9961 31.8326 -4.83829 33.947 1.49547 20.2037C1.49547 20.2037 0.529747 12.7536 5.23512 12.25C9.94049 11.7464 16.2743 3.28898 16.2743 3.28898C16.2743 3.28898 30.7954 -4.11123 38.3136 3.28898C45.8318 10.6892 68 54.0333 68 54.0333L53.2212 69.8909C53.2212 69.8909 44.3364 46.4999 34 49.2094C23.6637 51.9189 14.163 59.9976 14.163 59.9976C14.163 59.9976 3.67321 54.7403 8.39029 50.1581C13.1074 45.5759 10.9961 31.8326 10.9961 31.8326Z" fill="#2F2E41"/>
</svg>
