<svg width="117" height="307" viewBox="0 0 117 307" fill="none" xmlns="http://www.w3.org/2000/svg">
<path d="M71.1567 164.078C71.6222 169.937 75.0179 174.445 78.7407 174.148C82.4636 173.85 85.1032 168.861 84.6368 163C84.4825 160.657 83.7701 158.384 82.5591 156.373L80.2738 131.575L68.6769 132.897L72.161 157.203C71.2827 159.381 70.9384 161.739 71.1567 164.078Z" fill="#FFB6B6"/>
<path d="M57.303 48.3881C57.303 48.3881 68.1436 42.641 73.6405 51.2293C79.1374 59.8176 82.9313 152.702 82.9313 152.702L67.6956 154.331L64.8074 88.8779L57.303 48.3881Z" fill="#E6E6E6"/>
<path d="M34.803 301.702L43.6292 301.702L47.8279 267.606L34.8012 267.607L34.803 301.702Z" fill="#FFB6B6"/>
<path d="M65.0428 301.501C65.3176 301.965 65.4626 303.461 65.4626 304C65.4626 305.657 64.1215 307 62.467 307H35.1331C34.0045 307 33.0894 306.084 33.0894 304.953V303.814C33.0894 303.814 31.7373 300.388 34.5212 296.166C34.5212 296.166 37.9812 299.472 43.1513 294.294L44.676 291.528L55.7122 299.612L61.8294 300.366C63.1677 300.531 64.3544 300.34 65.0428 301.501Z" fill="#2F2E41"/>
<path d="M85.8793 300.239L94.4307 298.051L90.0727 263.975L77.4515 267.205L85.8793 300.239Z" fill="#FFB6B6"/>
<path d="M115.129 292.549C115.51 292.93 116.02 294.343 116.153 294.865C116.563 296.471 115.595 298.105 113.992 298.515L87.5086 305.29C86.415 305.57 85.302 304.909 85.0227 303.814L84.741 302.709C84.741 302.709 82.5844 299.726 84.2383 294.945C84.2383 294.945 88.4076 297.29 92.1373 290.992L92.9309 287.934L105.621 293.031L111.735 292.245C113.072 292.073 114.175 291.594 115.129 292.549Z" fill="#2F2E41"/>
<path d="M27.5008 41.0593L27.0823 38.0178L32.0562 25.8519L45.7225 24.3312L48.6733 41.7482L27.5008 41.0593Z" fill="#FFB6B6"/>
<path opacity="0.1" d="M27.5008 41.0593L27.0823 38.0178L32.0562 25.8519L45.7225 24.3312L48.6733 41.7482L27.5008 41.0593Z" fill="black"/>
<path d="M11.5568 126.978L5.48293 143.706L10.0384 152.83L32.8155 285.131H47.9583L44.9632 168.037L79.8881 285.131H94.8756L82.8234 206.054L73.8142 133.061L68.3498 129.68L41.9263 114.813L11.5568 126.978Z" fill="#2F2E41"/>
<path d="M50.2779 138.384L41.1671 139.905L29.0193 111.011H56.3518L50.2779 138.384Z" fill="#E6E6E6"/>
<path d="M68.4996 130.78L50.2779 138.383L44.204 124.697L41.1671 139.904L9.27911 129.624L13.8345 111.011L9.27911 50.1831L25.3598 39.4469L27.5008 38.0175L47.2409 39.5382L48.972 40.481L60.9072 47.1417L63.9442 97.3247L68.4996 130.78Z" fill="#2F2E41"/>
<path d="M48.972 40.481L40.4078 76.7953L25.3598 39.4469L27.5008 38.0175L47.2409 39.5382L48.972 40.481Z" fill="#E6E6E6"/>
<path d="M34.3339 38.0175L31.297 43.2555L34.3339 45.0014L32.8155 76.8897L38.8893 85.1591L44.9632 72.9372L40.4078 45.0014L41.9263 38.0175H34.3339Z" fill="#2F2E41"/>
<path d="M38.8893 34.977C46.8563 34.977 53.3149 28.5088 53.3149 20.53C53.3149 12.5511 46.8563 6.08298 38.8893 6.08298C30.9224 6.08298 24.4638 12.5511 24.4638 20.53C24.4638 28.5088 30.9224 34.977 38.8893 34.977Z" fill="#FFB6B6"/>
<path d="M29.6704 21.7972L32.7873 23.1596L34.1476 14.9856C34.1476 14.9856 39.5888 12.2609 43.6697 13.6233C47.7506 14.9856 54.5521 13.6233 54.5521 13.6233C54.5521 13.6233 54.5521 0 45.03 0C35.5079 0 25.9858 1.36233 25.9858 5.44931C25.9858 9.53629 21.9049 13.6233 21.9049 13.6233C21.9049 13.6233 16.4637 21.7972 21.9049 27.2465C27.3461 32.6958 30.0667 32.6958 30.0667 32.6958L29.6704 21.7972Z" fill="#2F2E41"/>
<path d="M1.67974 163.651C1.52156 169.526 4.42018 174.369 8.15352 174.47C11.8869 174.57 15.0405 169.889 15.198 164.012C15.293 161.665 14.8255 159.33 13.8345 157.201L14.1909 132.301L2.51933 132.382L3.4072 156.921C2.30297 158.994 1.71062 161.302 1.67974 163.651Z" fill="#FFB6B6"/>
<path d="M16.1197 47.1131C16.1197 47.1131 6.24959 44.0717 1.69416 53.1959C-2.86126 62.32 3.21264 155.083 3.21264 155.083H18.5349L14.4683 89.6926L16.1197 47.1131Z" fill="#E6E6E6"/>
</svg>
