<svg width="552" height="206" viewBox="0 0 552 206" fill="none" xmlns="http://www.w3.org/2000/svg">
<path d="M539.204 205.593H12.7963C5.7404 205.593 0 199.844 0 192.777V12.8151C0 5.7488 5.7404 0 12.7963 0H539.204C546.26 0 552 5.7488 552 12.8151V192.777C552 199.844 546.26 205.593 539.204 205.593ZM12.7963 1.52784C6.5818 1.52784 1.52561 6.59143 1.52561 12.8151V192.777C1.52561 199.001 6.5818 204.065 12.7963 204.065H539.204C545.418 204.065 550.474 199.001 550.474 192.777V12.8151C550.474 6.59143 545.418 1.52784 539.204 1.52784H12.7963Z" fill="#3F3D56"/>
</svg>
