<svg width="220" height="40" viewBox="0 0 220 40" fill="none" xmlns="http://www.w3.org/2000/svg">
<circle cx="20" cy="20" r="20" fill="#F0F0F2"/>
<path d="M31.999 20.0005C31.999 13.3722 26.6268 8 19.9995 8C13.3722 8 8 13.3722 8 20.0005C8 25.9887 12.3882 30.953 18.1244 31.853V23.4686H15.0783V19.9995H18.1244V17.3564C18.1244 14.3483 19.9165 12.6872 22.6566 12.6872C23.9697 12.6872 25.3427 12.9212 25.3427 12.9212V15.8743H23.8307C22.3406 15.8743 21.8756 16.7994 21.8756 17.7484V20.0005H25.2037L24.6717 23.4696H21.8756V31.854C27.6118 30.954 32 25.9897 32 20.0005H31.999Z" fill="#252B3B"/>
<circle cx="80" cy="20" r="20" fill="white"/>
<path d="M91.953 12.3234C91.0545 12.719 90.1027 12.9801 89.1281 13.0984C90.1542 12.4817 90.9225 11.5145 91.291 10.3755C90.3401 10.9305 89.2861 11.3344 88.1642 11.5594C87.424 10.7679 86.4431 10.2429 85.3739 10.066C84.3047 9.88909 83.2071 10.0702 82.2513 10.5811C81.2956 11.092 80.5353 11.9042 80.0886 12.8915C79.6418 13.8788 79.5335 14.9861 79.7805 16.0413C75.6907 15.8483 72.0658 13.8843 69.6399 10.9155C69.1987 11.6652 68.9686 12.5204 68.974 13.3904C68.974 15.1003 69.8439 16.6032 71.1619 17.4862C70.3808 17.4613 69.6169 17.2501 68.934 16.8702V16.9312C68.9335 18.0676 69.3262 19.1691 70.0454 20.0488C70.7646 20.9286 71.7661 21.5325 72.8798 21.758C72.1581 21.9514 71.4023 21.9804 70.6679 21.843C70.9841 22.8209 71.5977 23.6757 72.423 24.2882C73.2483 24.9007 74.2441 25.2404 75.2717 25.2599C73.5313 26.6257 71.3823 27.367 69.17 27.3648C68.78 27.3648 68.391 27.3418 68 27.2978C70.2556 28.7421 72.8783 29.5087 75.5567 29.5067C84.6103 29.5067 89.5551 22.011 89.5551 15.5213C89.5551 15.3123 89.5551 15.1013 89.5401 14.8913C90.506 14.1962 91.3392 13.3332 92 12.3434L91.953 12.3234Z" fill="#252B3B"/>
<circle cx="140" cy="20" r="20" fill="#F0F0F2"/>
<path d="M152 12.5002V27.5002C152 28.3502 151.35 29.0002 150.5 29.0002H149V15.3872L140 21.8502L131 15.3872V29.0002H129.5C128.649 29.0002 128 28.3502 128 27.5002V12.5002C128 12.0752 128.162 11.7002 128.431 11.4322C128.571 11.2925 128.738 11.1824 128.922 11.1082C129.105 11.034 129.302 10.9973 129.5 11.0002H130L140 18.2502L150 11.0002H150.5C150.925 11.0002 151.3 11.1622 151.569 11.4322C151.839 11.7002 152 12.0752 152 12.5002Z" fill="#252B3B"/>
<circle cx="200" cy="20" r="20" fill="#F0F0F2"/>
<path d="M205.498 22.4506C205.2 22.3009 203.732 21.5795 203.458 21.479C203.184 21.3796 202.985 21.3303 202.785 21.6298C202.587 21.9282 202.015 22.6004 201.841 22.7993C201.667 22.9993 201.492 23.0234 201.194 22.8747C200.895 22.7239 199.933 22.4095 198.792 21.3926C197.905 20.6009 197.305 19.6232 197.131 19.3238C196.958 19.0254 197.113 18.8636 197.262 18.7149C197.397 18.5813 197.561 18.3663 197.71 18.1924C197.86 18.0176 197.909 17.893 198.01 17.6931C198.109 17.4941 198.06 17.3203 197.984 17.1706C197.909 17.0209 197.312 15.5509 197.064 14.9531C196.821 14.3713 196.575 14.4507 196.392 14.4406C196.201 14.433 196.01 14.4297 195.819 14.4306C195.62 14.4306 195.297 14.5049 195.023 14.8043C194.75 15.1028 193.978 15.8252 193.978 17.2952C193.978 18.7641 195.048 20.1839 195.197 20.3838C195.347 20.5828 197.303 23.5991 200.298 24.8922C201.011 25.1997 201.566 25.3836 202 25.5202C202.716 25.7483 203.367 25.7162 203.88 25.6388C204.454 25.5534 205.647 24.9164 205.896 24.219C206.145 23.5217 206.145 22.9239 206.07 22.7993C205.995 22.6747 205.797 22.6004 205.498 22.4506ZM200.05 29.889H200.046C198.268 29.8891 196.522 29.4109 194.991 28.5044L194.628 28.2894L190.87 29.2761L191.872 25.6107L191.636 25.2349C190.642 23.6516 190.116 21.8193 190.119 19.9498C190.12 14.4738 194.576 10.0186 200.054 10.0186C202.707 10.0186 205.201 11.0535 207.076 12.9304C208.001 13.8514 208.734 14.9467 209.233 16.153C209.732 17.3592 209.987 18.6525 209.982 19.9578C209.979 25.4338 205.524 29.889 200.05 29.889ZM208.503 11.5047C207.396 10.3903 206.079 9.50673 204.628 8.90514C203.177 8.30355 201.621 7.9959 200.05 8.00004C193.464 8.00004 188.103 13.3605 188.1 19.9488C188.1 22.0548 188.65 24.1105 189.696 25.9221L188 32.1145L194.335 30.4526C196.087 31.4071 198.05 31.9073 200.045 31.9075H200.05C206.635 31.9075 211.997 26.5471 212 19.9578C212.005 18.3876 211.698 16.8321 211.098 15.3811C210.498 13.9302 209.616 12.6126 208.503 11.5047Z" fill="#252B3B"/>
</svg>
