<svg width="180" height="134" viewBox="0 0 180 134" fill="none" xmlns="http://www.w3.org/2000/svg">
<path d="M4.77702 62.1258L76.8595 11.3458C79.3054 9.62688 82.3333 8.94832 85.2789 9.45905C88.2245 9.96977 90.8472 11.6281 92.5716 14.0701L120.352 53.5049C122.071 55.9508 122.75 58.9787 122.239 61.9242C121.728 64.8698 120.07 67.4926 117.628 69.217L45.5456 119.997C43.0997 121.716 40.0718 122.395 37.1262 121.884C34.1806 121.373 31.5579 119.715 29.8335 117.273L2.0528 77.838C0.333837 75.3921 -0.34472 72.3642 0.165995 69.4186C0.676709 66.473 2.33499 63.8503 4.77702 62.1258Z" fill="#F2F2F2"/>
<path d="M6.64641 64.7796L78.729 13.9995C80.4707 12.7754 82.627 12.2922 84.7246 12.6558C86.8222 13.0195 88.6899 14.2004 89.9179 15.9395L117.699 55.3743C118.923 57.116 119.406 59.2723 119.042 61.3699C118.679 63.4675 117.498 65.3352 115.759 66.5632L43.676 117.343C41.9343 118.567 39.778 119.051 37.6804 118.687C35.5828 118.323 33.7152 117.142 32.4872 115.403L4.70649 75.9685C3.48238 74.2267 2.99916 72.0705 3.36284 69.9729C3.72652 67.8753 4.9074 66.0076 6.64641 64.7796Z" fill="white"/>
<path d="M56.1953 133.621C55.9773 133.773 55.7314 133.881 55.4716 133.939C55.0873 134.029 54.6846 134.002 54.3162 133.86C53.9478 133.718 53.6309 133.468 53.4069 133.143L43.8033 119.51L61.547 106.095L56.9973 132.336C56.9553 132.592 56.8628 132.838 56.7251 133.059C56.5875 133.279 56.4074 133.47 56.1953 133.621Z" fill="#F2F2F2"/>
<path d="M76.6112 30.1682L22.4088 68.3523C20.2387 69.881 19.7188 72.8796 21.2475 75.0497L21.2475 75.0497C22.7763 77.2198 25.7749 77.7397 27.945 76.2109L82.1474 38.0269C84.3175 36.4981 84.8374 33.4996 83.3086 31.3295C81.7798 29.1594 78.7813 28.6395 76.6112 30.1682Z" fill="#F2F2F2"/>
<path d="M85.5356 42.6501L31.3332 80.8341C29.1631 82.3629 28.6432 85.3614 30.172 87.5315L30.172 87.5315C31.7008 89.7016 34.6993 90.2215 36.8695 88.6928L91.0719 50.5087C93.242 48.98 93.7619 45.9814 92.2331 43.8113C90.7043 41.6412 87.7058 41.1213 85.5356 42.6501Z" fill="#F2F2F2"/>
<path d="M94.4601 55.1319L40.2577 93.3159C38.0876 94.8447 37.5677 97.8433 39.0965 100.013L39.0965 100.013C40.6252 102.183 43.6238 102.703 45.7939 101.175L99.9963 62.9906C102.166 61.4618 102.686 58.4633 101.158 56.2931C99.6287 54.123 96.6302 53.6031 94.4601 55.1319Z" fill="#F2F2F2"/>
<path d="M132.769 2.05268L60.6868 52.8327C58.2448 54.5571 56.5865 57.1799 56.0758 60.1255C55.5651 63.071 56.2437 66.0989 57.9626 68.5448L85.7433 107.98C87.4677 110.422 90.0905 112.08 93.036 112.591C95.9816 113.101 99.0095 112.423 101.455 110.704L173.538 59.9239C175.98 58.1994 177.638 55.5767 178.149 52.6311C178.66 49.6855 177.981 46.6576 176.262 44.2117L148.481 4.77694C146.757 2.3349 144.134 0.676617 141.189 0.165892C138.243 -0.344828 135.215 0.333722 132.769 2.05268Z" fill="#ED662C"/>
<path d="M134.639 4.70627L62.5563 55.4863C60.8173 56.7144 59.6364 58.5821 59.2727 60.6797C58.909 62.7773 59.3922 64.9335 60.6163 66.6753L88.397 106.11C89.625 107.849 91.4927 109.03 93.5903 109.394C95.6879 109.757 97.8442 109.274 99.5859 108.05L171.668 57.27C173.408 56.042 174.588 54.1743 174.952 52.0767C175.316 49.9791 174.833 47.8229 173.608 46.0811L145.828 6.64632C144.6 4.90729 142.732 3.7264 140.634 3.36269C138.537 2.99899 136.381 3.48218 134.639 4.70627Z" fill="white"/>
<path d="M177.662 77.4248L151.421 72.8751L170.027 60.6832L179.63 74.3156C179.861 74.636 179.99 75.0185 179.999 75.4132C180.009 75.808 179.899 76.1964 179.685 76.5278C179.543 76.7531 179.359 76.9483 179.142 77.1021C178.929 77.2512 178.688 77.3564 178.434 77.4118C178.18 77.4672 177.918 77.4717 177.662 77.4248Z" fill="#ED662C"/>
<path d="M104.722 72.5585C107.473 70.6209 108.132 66.8204 106.194 64.0699C104.257 61.3194 100.456 60.6604 97.7056 62.5981C94.9551 64.5357 94.2962 68.3362 96.2338 71.0867C98.1715 73.8372 101.972 74.4961 104.722 72.5585Z" fill="#F0F0F2"/>
<path d="M120.621 61.3585C123.371 59.4208 124.03 55.6204 122.093 52.8699C120.155 50.1194 116.354 49.4604 113.604 51.3981C110.853 53.3357 110.195 57.1362 112.132 59.8867C114.07 62.6372 117.87 63.2961 120.621 61.3585Z" fill="#F0F0F2"/>
<path d="M136.519 50.1585C139.27 48.2208 139.929 44.4204 137.991 41.6699C136.053 38.9194 132.253 38.2604 129.502 40.1981C126.752 42.1357 126.093 45.9362 128.031 48.6867C129.968 51.4372 133.769 52.0961 136.519 50.1585Z" fill="#F0F0F2"/>
</svg>
