<svg width="110" height="172" viewBox="0 0 110 172" fill="none" xmlns="http://www.w3.org/2000/svg">
<path d="M109.669 170.266L85.1662 92.2717L85.1698 92.2715H85.2264L85.1274 92.144L85.1252 92.1412L83.38 86.5858L83.3808 86.5852C86.0395 84.2908 87.8497 81.0121 88.2103 77.2377L77.0099 15.5454C77.7806 7.44437 71.5794 0.36305 63.4548 0.072693L38.1832 0.00898412C30.9991 -0.245936 24.7767 4.95172 23.7302 12.0756L23.1716 15.857L15.4289 68.6057C15.146 70.5034 15.2592 72.373 15.7046 74.122L10.1327 74.8515L8.44273 75.078L1.76069 75.949L1.73948 75.9561L0.9051 76.0623H0V98.7225H0.0566096V171.15C0.0566096 171.618 0.438392 172 0.9051 172C1.37884 172 1.76069 171.618 1.76069 171.15V98.7225H11.6742L21.5664 171.065C21.6301 171.49 21.9907 171.802 22.415 171.802C22.4503 171.802 22.4928 171.802 22.5281 171.795C22.9948 171.731 23.32 171.299 23.2564 170.832L13.3995 98.7225H60.9658C65.6888 98.7225 70.0653 97.2216 73.6289 94.6515L92.4883 170.933C92.5865 171.319 92.9328 171.575 93.3131 171.575C93.3826 171.575 93.4533 171.567 93.5238 171.549C93.9795 171.433 94.2551 170.968 94.1392 170.512L75.0974 93.4931C75.3507 93.2817 75.604 93.0563 75.8432 92.8237L83.4139 92.3779L108.044 170.778C108.159 171.142 108.494 171.376 108.856 171.376C108.941 171.376 109.027 171.363 109.112 171.336C109.561 171.194 109.81 170.715 109.669 170.266ZM81.7616 87.7961C81.8252 87.7607 81.8818 87.7181 81.9383 87.6827L82.1207 88.2615L81.7616 87.7961Z" fill="#E6E6E6"/>
</svg>
