<svg width="103" height="62" viewBox="0 0 103 62" fill="none" xmlns="http://www.w3.org/2000/svg">
<path d="M1.50012 59.8613C1.95204 55.794 5.87037 53.0352 8.32246 49.9993C13.8146 43.1994 21.6577 38.5819 26.763 31.4912C27.6222 30.2979 34.3284 20.2743 34.3284 25.2768C34.3284 31.1139 33.1062 38.3516 34.3284 44.0551C34.3315 44.0696 54.8194 21.1804 56.8894 23.2503C59.5902 25.9511 56.2139 35.9195 56.2139 39.732C56.2139 48.4825 72.3251 29.5184 74.5194 27.5734C81.0478 21.7869 84.9652 14.7634 90.9335 8.79508C92.8179 6.91071 95.1968 6.21269 96.3374 3.93164" stroke="#27996D" stroke-width="3" stroke-linecap="round"/>
<path d="M80.5312 3.93172C86.9411 3.93172 92.7927 1.5 99.377 1.5C102.591 1.5 101.201 11.0322 101.201 13.6586" stroke="#27996D" stroke-width="3" stroke-linecap="round"/>
</svg>
