<svg width="584" height="412" viewBox="0 0 584 412" fill="none" xmlns="http://www.w3.org/2000/svg">
<g clip-path="url(#clip0_6_377)">
<path d="M363.969 411.781C369.718 399.652 375.462 387.344 377.957 374.202C380.453 361.06 379.405 346.798 372.26 335.4C365.114 324.001 351.044 316.272 337.617 318.849C326.589 320.965 317.734 329.449 312.549 339.188C307.364 348.928 305.283 359.913 303.267 370.713C302.615 358.444 301.925 345.977 297.752 334.388C293.58 322.798 285.363 311.998 273.653 307.513C261.944 303.028 246.711 306.555 240.539 317.259C231.844 332.341 243.373 353.495 233.375 367.785C231.66 353.451 216.314 342.126 201.728 344.431C187.143 346.736 176.236 362.21 179.236 376.341C181.021 384.75 186.895 391.901 193.917 397.068C200.939 402.235 209.106 408.224 217.185 411.61L363.969 411.781Z" fill="#88B5A1"/>
<path d="M186.894 354.558C198.48 358.514 210.172 362.514 220.75 368.698C230.229 374.241 238.671 381.703 244.002 391.259C246.923 396.386 248.658 402.076 249.083 407.929C249.16 409.153 251.121 409.161 251.043 407.929C250.358 397.03 244.92 387.056 237.39 379.169C229.134 370.52 218.436 364.614 207.39 360.031C200.841 357.314 194.129 355.005 187.415 352.712C186.222 352.305 185.709 354.154 186.894 354.558Z" fill="white"/>
<path d="M253.722 309.413C260.84 320.996 266.54 333.356 270.705 346.238C274.879 359.116 277.507 372.423 278.539 385.893C279.11 393.434 279.172 401.002 278.725 408.551C278.653 409.781 280.613 409.777 280.685 408.551C281.476 394.941 280.633 381.288 278.173 367.871C275.717 354.454 271.68 341.361 266.143 328.851C263.035 321.824 259.451 315.008 255.415 308.447C255.279 308.237 255.065 308.086 254.818 308.027C254.571 307.969 254.31 308.006 254.09 308.131C253.871 308.256 253.71 308.46 253.641 308.699C253.572 308.938 253.601 309.194 253.722 309.413Z" fill="white"/>
<path d="M349.653 320.41C339.585 342.506 332.499 365.786 328.575 389.666C327.473 396.374 326.62 403.115 326.016 409.888C325.907 411.115 327.867 411.108 327.976 409.888C330.111 386.061 335.383 362.603 343.662 340.094C345.989 333.765 348.55 327.526 351.346 321.376C351.853 320.26 350.165 319.285 349.653 320.41Z" fill="white"/>
<path d="M69.2993 410.349C49.2186 405.244 31.4741 393.702 18.9103 377.572C6.34651 361.442 -0.30901 341.659 0.0106408 321.395C0.0902765 316.346 0.633791 311.191 2.80679 306.609C4.97979 302.027 9.01611 298.064 14.0651 296.978C19.5753 295.793 25.3898 298.215 29.4962 301.995C33.6026 305.774 36.2951 310.76 38.7723 315.712C53.6932 345.535 65.0297 377.535 69.2741 410.469L69.2993 410.349Z" fill="#88B5A1"/>
<path d="M11.5653 297.973L22.0227 321.181L32.4801 344.388C35.7919 351.738 39.0975 359.091 42.5207 366.393C45.9138 373.63 49.4232 380.817 53.1671 387.888C56.9056 394.949 60.8789 401.895 65.1918 408.638C65.7289 409.478 66.2713 410.314 66.8189 411.147C67.1979 411.724 68.1453 411.189 67.7636 410.608C63.368 403.915 59.3177 397.012 55.519 389.98C51.7161 382.941 48.1618 375.777 44.7387 368.555C41.2974 361.294 37.9884 353.975 34.6882 346.653C31.2144 338.945 27.7413 331.238 24.2687 323.529L13.8113 300.322L12.5099 297.434C12.2269 296.806 11.284 297.349 11.5653 297.973Z" fill="white"/>
<path d="M64.937 410.51C53.1005 413.155 40.6977 411.841 29.7167 406.78C18.7357 401.719 9.81249 393.203 4.37747 382.597C3.0233 379.955 1.8807 377.135 1.74249 374.183C1.60427 371.231 2.60453 368.109 4.9258 366.214C7.45913 364.146 11.1473 363.871 14.3239 364.75C17.5004 365.629 20.2765 367.508 22.9311 369.426C38.9206 380.975 53.651 394.6 64.9572 410.579L64.937 410.51Z" fill="#88B5A1"/>
<path d="M3.90299 367.39L15.7466 376.682L27.5903 385.973C31.3412 388.916 35.0897 391.862 38.885 394.75C42.6469 397.613 46.4554 400.419 50.3535 403.103C54.2461 405.783 58.2287 408.341 62.3315 410.705C62.8424 410.999 63.3552 411.29 63.8698 411.579C64.2261 411.778 64.57 411.25 64.2112 411.049C60.0793 408.734 56.0685 406.218 52.1528 403.569C48.2329 400.917 44.4073 398.134 40.6341 395.288C36.8407 392.426 33.0998 389.498 29.3626 386.567C25.4288 383.481 21.4952 380.395 17.5619 377.309L5.71828 368.017L4.2444 366.861C3.92389 366.61 3.58444 367.14 3.90299 367.39Z" fill="white"/>
<path d="M569.038 412H28.5327C28.4303 412 28.3289 411.981 28.2343 411.943C28.1396 411.905 28.0536 411.849 27.9811 411.778C27.9087 411.708 27.8512 411.624 27.8119 411.531C27.7727 411.439 27.7525 411.34 27.7525 411.24C27.7525 411.14 27.7727 411.041 27.8119 410.949C27.8512 410.857 27.9087 410.773 27.9811 410.702C28.0536 410.632 28.1396 410.576 28.2343 410.538C28.3289 410.499 28.4303 410.48 28.5327 410.48H569.038C569.244 410.48 569.442 410.56 569.588 410.703C569.734 410.845 569.816 411.039 569.816 411.24C569.816 411.442 569.734 411.635 569.588 411.777C569.442 411.92 569.244 412 569.038 412Z" fill="#3F3D56"/>
<path d="M554.839 335.873H518.246C518.245 336.296 518.073 336.702 517.767 337.001C517.461 337.3 517.045 337.469 516.612 337.469H480.692C480.184 337.842 479.722 338.27 479.313 338.745C478.085 340.176 477.414 341.984 477.418 343.85V345.127C477.419 347.242 478.28 349.27 479.811 350.766C481.342 352.262 483.419 353.103 485.585 353.103H554.839C557.004 353.102 559.081 352.261 560.612 350.765C562.143 349.269 563.004 347.242 563.006 345.127V343.85C563.003 341.736 562.141 339.708 560.611 338.213C559.08 336.718 557.004 335.876 554.839 335.873Z" fill="#3F3D56"/>
<path d="M524.782 352.787H516.289V411.496H524.782V352.787Z" fill="#3F3D56"/>
<path d="M548.956 411.205C548.956 412.101 536.085 411.552 520.209 411.552C504.332 411.552 491.462 412.101 491.462 411.205C491.462 410.309 504.332 403.2 520.209 403.2C536.085 403.2 548.956 410.309 548.956 411.205Z" fill="#3F3D56"/>
<path d="M553.239 337.711L551.814 329.007C551.634 327.91 551.015 326.928 550.094 326.276C549.173 325.624 548.025 325.355 546.901 325.529L532.208 327.82L507.041 331.745L498.854 333.021H516.612C517.045 333.021 517.461 333.189 517.767 333.488C518.073 333.788 518.245 334.193 518.246 334.616V335.873C518.245 336.296 518.073 336.702 517.767 337.001C517.461 337.301 517.045 337.469 516.612 337.469H471.421C470.79 337.757 470.244 338.196 469.833 338.745C469.485 339.192 469.234 339.702 469.095 340.246C468.956 340.791 468.931 341.357 469.023 341.91L469.428 344.386L469.918 347.392L470.447 350.621C470.627 351.715 471.244 352.695 472.162 353.346C473.081 353.997 474.226 354.265 475.347 354.093L487.022 352.274L520.696 347.022L549.678 342.504C550.799 342.325 551.802 341.722 552.469 340.824C553.136 339.926 553.412 338.807 553.239 337.711Z" fill="#DE7673"/>
<path d="M486.127 338.745C485.698 338.188 485.129 337.748 484.474 337.469H471.982C471.325 337.747 470.754 338.186 470.323 338.745C469.742 339.472 469.426 340.369 469.428 341.291V389.925C469.429 391.033 469.881 392.095 470.683 392.879C471.485 393.662 472.573 394.103 473.707 394.105H482.743C483.878 394.103 484.965 393.662 485.767 392.879C486.569 392.095 487.021 391.033 487.022 389.925V341.291C487.023 340.369 486.708 339.473 486.127 338.745Z" fill="#DE7673"/>
<path d="M513.319 255.913L513.234 255.805L507.629 249.059C507.33 248.698 506.97 248.389 506.564 248.147C506.349 248.004 506.116 247.889 505.871 247.802C505.514 247.662 505.138 247.572 504.754 247.534C504.498 247.508 504.24 247.503 503.983 247.522C503.978 247.522 503.973 247.524 503.97 247.528C503.104 247.59 502.278 247.911 501.605 248.447L490.1 257.56L475.315 269.276L453.251 286.761L451.644 288.038H479.561L481.175 286.761L486.513 282.53L486.892 282.237L512.672 261.81L512.692 261.797C513.223 261.38 513.642 260.843 513.914 260.233C514.093 259.834 514.208 259.41 514.254 258.976C514.313 258.431 514.261 257.879 514.101 257.353C513.94 256.828 513.675 256.338 513.319 255.913Z" fill="#DE7673"/>
<path d="M513.235 255.805C512.874 254.085 512.074 252.483 510.909 251.146C509.747 249.8 508.251 248.767 506.564 248.147C506.302 248.051 506.048 247.962 505.786 247.892C505.197 247.72 504.594 247.596 503.983 247.522C503.978 247.522 503.973 247.524 503.97 247.528C501.221 247.218 498.457 247.964 496.261 249.608L476.36 264.464C475.937 264.834 475.595 265.282 475.354 265.783C475.113 266.284 474.977 266.827 474.955 267.381C474.924 268.031 475.047 268.68 475.315 269.276C475.38 269.41 475.452 269.544 475.53 269.672C475.683 269.931 475.867 270.171 476.079 270.387L479.267 273.884L486.683 282.007L486.892 282.237L487.369 282.767C487.748 283.173 488.206 283.502 488.716 283.736C489.226 283.969 489.779 284.101 490.341 284.126C490.904 284.15 491.466 284.066 491.995 283.877C492.524 283.689 493.01 283.4 493.425 283.028L510.588 265.02C511.48 264.085 512.187 262.996 512.672 261.81C513.456 259.905 513.652 257.817 513.235 255.805Z" fill="#2F2E41"/>
<path d="M520.822 232.697C538.908 232.697 553.569 218.376 553.569 200.711C553.569 183.046 538.908 168.726 520.822 168.726C502.736 168.726 488.075 183.046 488.075 200.711C488.075 218.376 502.736 232.697 520.822 232.697Z" fill="#DE7673"/>
<path d="M533.103 333.308L532.208 327.82L531.678 324.597C531.498 323.502 530.88 322.521 529.96 321.87C529.04 321.219 527.893 320.952 526.772 321.126L502.971 324.833L496.516 325.842L495.209 326.046V333.021H516.612C517.045 333.021 517.461 333.189 517.767 333.488C518.073 333.788 518.245 334.193 518.246 334.616V335.873C518.245 336.297 518.073 336.702 517.767 337.001C517.461 337.301 517.045 337.469 516.612 337.469H448.88C448.88 337.482 448.887 337.494 448.887 337.507L449.292 339.983L450.311 346.212C450.491 347.306 451.108 348.286 452.027 348.937C452.945 349.587 454.09 349.856 455.211 349.683L466.886 347.864L469.428 347.469L469.918 347.392L487.022 344.725L498.658 342.906L517.122 340.028L517.396 339.983L529.542 338.094C530.663 337.919 531.667 337.317 532.334 336.42C533.002 335.523 533.278 334.404 533.103 333.308Z" fill="#DE7673"/>
<path d="M565.391 309.837C565.391 335.912 562.679 351.508 520.865 347.041C520.807 347.035 520.754 347.028 520.696 347.022C513.238 346.302 505.862 344.925 498.658 342.906C494.915 341.838 491.276 340.446 487.787 338.745C486.964 338.337 486.173 337.909 485.395 337.469H516.612C517.045 337.469 517.461 337.301 517.767 337.001C518.073 336.702 518.245 336.297 518.246 335.873V334.616C518.245 334.193 518.073 333.788 517.767 333.488C517.461 333.189 517.045 333.021 516.612 333.021H495.209V292.715C495.207 291.475 494.702 290.287 493.804 289.41C492.906 288.533 491.689 288.039 490.42 288.038H473.008C473.159 287.617 473.309 287.189 473.472 286.761C475.105 282.347 477.042 278.044 479.267 273.884C482.316 268.106 485.945 262.637 490.1 257.56C492.993 254.021 496.241 250.774 499.795 247.866C506.348 242.582 513.483 239.315 520.722 239.315C547.417 239.315 565.391 283.762 565.391 309.837Z" fill="#2F2E41"/>
<path d="M521.51 212.566L521.544 211.371C519.268 211.309 517.26 211.17 515.752 210.093C515.325 209.771 514.973 209.362 514.722 208.895C514.47 208.428 514.325 207.914 514.295 207.387C514.269 207.065 514.319 206.742 514.441 206.442C514.563 206.142 514.755 205.873 515.001 205.657C516.002 204.831 517.613 205.099 518.787 205.625L519.799 206.078L517.858 192.218L516.645 192.381L518.297 204.17C517.621 203.925 516.893 203.849 516.179 203.95C515.465 204.05 514.789 204.323 514.211 204.744C513.822 205.076 513.517 205.491 513.319 205.956C513.122 206.422 513.037 206.926 513.072 207.429C513.108 208.137 513.302 208.829 513.64 209.456C513.978 210.083 514.453 210.63 515.03 211.059C516.968 212.442 519.487 212.511 521.51 212.566Z" fill="#2F2E41"/>
<path d="M510.649 193.397H504.059V194.593H510.649V193.397Z" fill="#2F2E41"/>
<path d="M531.453 193.397H524.862V194.593H531.453V193.397Z" fill="#2F2E41"/>
<path d="M546.957 191.923C544.41 188.179 539.929 186.591 535.51 186.205C530.536 185.771 525.729 186.707 520.873 187.618C515.528 188.619 509.872 189.557 504.487 188.29C502.104 187.752 499.878 186.692 497.976 185.191C496.074 183.69 494.545 181.787 493.506 179.625C491.534 175.408 491.109 170.655 492.303 166.168C493.565 161.395 496.697 157.195 500.495 154.023C508.245 147.549 518.733 144.639 528.821 144.913C538.871 145.166 548.584 148.502 556.584 154.448C564.598 160.609 570.237 169.24 572.582 178.935C575.033 188.549 574.234 198.68 570.305 207.815C568.098 212.817 564.905 217.327 562.442 222.202C560.148 226.742 558.381 232.021 559.809 237.084C561.061 241.528 564.738 245.475 569.353 246.681C571.454 247.22 573.676 247.077 575.686 246.276C577.696 245.474 579.385 244.057 580.5 242.237C582.807 238.683 582.862 234.028 579.398 231.159C578.524 230.423 577.507 229.869 576.407 229.53C575.307 229.19 574.149 229.073 573.001 229.185C571.854 229.297 570.741 229.635 569.732 230.18C568.723 230.725 567.837 231.465 567.13 232.354C565.724 234.138 565.095 236.39 565.379 238.623C565.55 239.752 563.781 240.239 563.609 239.1C563.195 236.738 563.654 234.31 564.903 232.247C566.151 230.185 568.109 228.622 570.427 227.838C572.745 227.054 575.273 227.099 577.56 227.966C579.847 228.832 581.745 230.464 582.915 232.569C585.004 236.406 583.877 241.034 581.225 244.314C579.857 246.061 578.002 247.385 575.883 248.13C573.764 248.874 571.47 249.006 569.276 248.51C564.449 247.421 560.499 243.674 558.642 239.27C556.574 234.367 557.522 228.895 559.537 224.138C561.716 218.995 564.952 214.382 567.51 209.426C569.827 204.948 571.302 200.099 571.863 195.111C572.987 185.095 570.66 174.999 565.249 166.42C559.734 157.974 551.317 151.725 541.51 148.797C531.773 145.741 521.261 146.013 511.704 149.567C502.376 153.156 493.37 160.979 493.478 171.486C493.524 175.974 495.23 180.551 498.75 183.544C502.956 187.121 508.812 187.427 514.099 186.869C519.42 186.307 524.587 184.789 529.931 184.402C534.579 184.065 539.594 184.415 543.744 186.671C545.677 187.724 547.322 189.215 548.542 191.018C549.197 191.982 547.608 192.881 546.957 191.923Z" fill="#2F2E41"/>
<path d="M540.289 265.058L537.696 263.297L532.867 260.023C531.934 259.392 530.782 259.149 529.665 259.347C528.548 259.544 527.557 260.166 526.909 261.076L511.17 283.201L496.516 303.8L495.209 305.638V333.021H495.326C496.345 332.922 497.293 332.469 497.998 331.745C498.15 331.593 498.288 331.428 498.41 331.253L502.971 324.833L514.241 308.988L525.922 292.575L527.033 291.011L541.354 270.878C541.432 270.771 541.504 270.66 541.57 270.546C541.635 270.437 541.694 270.324 541.746 270.208C542.157 269.318 542.236 268.316 541.97 267.376C541.704 266.435 541.11 265.615 540.289 265.058Z" fill="#DE7673"/>
<path d="M540.335 256.302C539.873 256.006 539.388 255.746 538.885 255.524C536.653 254.525 534.136 254.307 531.759 254.906C529.382 255.506 527.288 256.887 525.831 258.817L510.961 278.51C510.662 278.979 510.462 279.501 510.372 280.046C510.282 280.592 510.304 281.149 510.436 281.686C510.569 282.223 510.809 282.728 511.144 283.174C511.478 283.619 511.9 283.995 512.385 284.279L525.922 292.575L526.092 292.677L526.772 293.092C527.743 293.666 528.908 293.84 530.012 293.577C531.115 293.314 532.066 292.635 532.658 291.688L543.157 271.331L543.334 270.993L543.34 270.986L543.987 269.716C545.167 267.432 545.446 264.804 544.773 262.331C544.1 259.858 542.521 257.713 540.335 256.302Z" fill="#2F2E41"/>
<path d="M449.292 337.469V385.515C449.294 386.623 449.745 387.685 450.547 388.469C451.349 389.252 452.437 389.693 453.571 389.695H462.607C463.741 389.693 464.829 389.253 465.631 388.469C466.433 387.686 466.885 386.623 466.886 385.515V337.469H449.292Z" fill="#DE7673"/>
<path d="M516.612 331.745H496.516V292.715C496.514 291.137 495.871 289.623 494.728 288.507C493.585 287.391 492.036 286.763 490.42 286.761H415.893C414.276 286.762 412.725 287.389 411.581 288.505C410.437 289.622 409.793 291.136 409.791 292.715V332.791C409.793 334.371 410.437 335.885 411.581 337.001C412.725 338.118 414.276 338.745 415.893 338.745H516.612C516.717 338.745 516.815 338.739 516.913 338.732C517.004 338.726 517.096 338.707 517.187 338.694C517.854 338.562 518.453 338.21 518.884 337.696C519.315 337.182 519.551 336.538 519.552 335.873V334.616C519.552 333.855 519.242 333.124 518.691 332.586C518.14 332.047 517.392 331.745 516.612 331.745ZM516.612 337.469H415.893C414.622 337.468 413.404 336.976 412.505 336.099C411.606 335.222 411.1 334.032 411.098 332.791V292.715C411.1 291.474 411.606 290.285 412.505 289.408C413.404 288.531 414.622 288.038 415.893 288.038H490.42C491.689 288.039 492.906 288.533 493.804 289.41C494.702 290.287 495.207 291.475 495.209 292.715V333.021H516.612C517.045 333.021 517.461 333.189 517.767 333.488C518.073 333.788 518.245 334.193 518.246 334.616V335.873C518.245 336.297 518.073 336.702 517.767 337.001C517.461 337.3 517.045 337.469 516.612 337.469Z" fill="#3F3D56"/>
<path d="M453.154 317.661C455.929 317.661 458.178 315.464 458.178 312.754C458.178 310.044 455.929 307.846 453.154 307.846C450.379 307.846 448.13 310.044 448.13 312.754C448.13 315.464 450.379 317.661 453.154 317.661Z" fill="#DE7673"/>
<path d="M79.7051 230.589C99.0165 230.589 114.671 215.298 114.671 196.436C114.671 177.574 99.0165 162.283 79.7051 162.283C60.3938 162.283 44.7388 177.574 44.7388 196.436C44.7388 215.298 60.3938 230.589 79.7051 230.589Z" fill="#DE7673"/>
<path d="M72.8889 324.916H63.2457C62.1197 324.917 61.0402 325.355 60.244 326.132C59.4478 326.91 59.0001 327.965 58.999 329.064V407.563C59.0001 408.663 59.4478 409.717 60.244 410.495C61.0402 411.273 62.1197 411.71 63.2457 411.711H72.8889C74.0148 411.71 75.0944 411.273 75.8906 410.495C76.6868 409.717 77.1345 408.663 77.1356 407.563V329.064C77.1345 327.965 76.6868 326.91 75.8906 326.132C75.0944 325.355 74.0148 324.917 72.8889 324.916Z" fill="#2F2E41"/>
<path d="M93.2665 324.916H83.6234C82.4974 324.917 81.4179 325.355 80.6217 326.132C79.8255 326.91 79.3777 327.965 79.3767 329.064V407.563C79.3777 408.663 79.8255 409.717 80.6217 410.495C81.4179 411.273 82.4974 411.71 83.6234 411.711H93.2665C93.8242 411.711 94.3765 411.604 94.8917 411.396C95.407 411.187 95.8752 410.882 96.2695 410.496C96.6639 410.111 96.9767 409.654 97.1901 409.151C97.4035 408.647 97.5133 408.108 97.5133 407.563V329.064C97.5133 328.52 97.4035 327.98 97.1901 327.477C96.9767 326.974 96.6639 326.516 96.2695 326.131C95.8752 325.746 95.407 325.441 94.8917 325.232C94.3765 325.024 93.8242 324.916 93.2665 324.916Z" fill="#2F2E41"/>
<path d="M100.251 248.498C96.8714 244.232 92.2113 241.105 86.9224 239.554C81.6336 238.003 75.9806 238.105 70.7544 239.847C65.5282 241.589 60.9901 244.883 57.7753 249.268C54.5604 253.654 52.8295 258.911 52.8248 264.305V333.825C52.8222 334.037 52.8397 334.248 52.8771 334.457C53.0322 335.52 53.5747 336.494 54.4051 337.198C55.2356 337.903 56.2982 338.291 57.3982 338.292H101.218C102.43 338.29 103.592 337.818 104.449 336.981C105.306 336.144 105.789 335.009 105.791 333.825V264.305C105.8 258.58 103.849 253.017 100.251 248.498Z" fill="#2F2E41"/>
<path d="M109.233 211.534L109.197 210.257C111.628 210.191 113.771 210.042 115.381 208.893C115.838 208.549 116.213 208.113 116.482 207.614C116.75 207.115 116.905 206.566 116.937 206.003C116.965 205.66 116.912 205.314 116.782 204.994C116.651 204.674 116.446 204.387 116.184 204.156C115.115 203.274 113.395 203.56 112.141 204.121L111.06 204.606L113.133 189.807L114.428 189.98L112.664 202.568C114.368 202.079 115.946 202.29 117.027 203.182C117.443 203.536 117.768 203.979 117.979 204.476C118.19 204.973 118.28 205.511 118.243 206.048C118.205 206.804 117.998 207.543 117.637 208.212C117.275 208.882 116.769 209.466 116.152 209.924C114.083 211.401 111.394 211.474 109.233 211.534Z" fill="#2F2E41"/>
<path d="M105.654 191.065H98.6165V192.342H105.654V191.065Z" fill="#2F2E41"/>
<path d="M69.4524 249.481C69.0752 249.078 68.6199 248.753 68.113 248.524C67.606 248.295 67.0575 248.167 66.4993 248.147L58.9011 247.841L56.8689 247.758C55.7439 247.713 54.6466 248.105 53.8175 248.849C52.9884 249.593 52.4951 250.628 52.4458 251.727L51.2438 280.01L49.1204 330.162C49.0771 331.209 49.44 332.233 50.1366 333.029C50.8332 333.825 51.812 334.335 52.8771 334.457C52.9818 334.47 53.0797 334.476 53.1843 334.482L58.999 334.718L62.8211 334.872C63.1272 334.885 63.4339 334.866 63.7357 334.814C64.5339 334.675 65.275 334.316 65.8722 333.78C66.2841 333.412 66.6169 332.967 66.8513 332.472C67.0857 331.977 67.217 331.441 67.2375 330.896L67.4924 324.916L69.3676 280.686L70.5697 252.461C70.6166 251.362 70.2147 250.29 69.4524 249.481Z" fill="#DE7673"/>
<path d="M63.886 243.291C63.0739 243.123 62.2461 243.04 61.4162 243.042C58.2117 243.046 55.1396 244.291 52.8738 246.504C50.6079 248.717 49.3332 251.718 49.3293 254.848V276.545C49.3312 277.232 49.5069 277.908 49.8409 278.512C50.1749 279.117 50.6569 279.631 51.2438 280.01C51.7223 280.318 52.2604 280.526 52.8248 280.622C53.0724 280.668 53.324 280.692 53.5761 280.693H69.2563C69.2935 280.694 69.3308 280.692 69.3676 280.686C70.4736 280.659 71.5248 280.21 72.2973 279.437C73.0697 278.663 73.5024 277.625 73.503 276.545V254.848C73.4995 252.136 72.5421 249.508 70.7913 247.404C69.0405 245.3 66.6025 243.848 63.886 243.291Z" fill="#2F2E41"/>
<path d="M147.631 305.083C146.607 304.566 145.802 303.711 145.359 302.671C144.917 301.63 144.865 300.471 145.214 299.397L148.931 287.84L147.847 286.959L119.315 263.903L100.251 248.498L97.9315 246.622C97.0642 245.92 95.9472 245.584 94.8261 245.687C93.7051 245.79 92.6718 246.324 91.9535 247.171L85.8054 254.433C85.449 254.852 85.1807 255.335 85.0159 255.856C84.8512 256.376 84.7932 256.924 84.8454 257.466C84.8976 258.009 85.0589 258.536 85.3201 259.017C85.5812 259.499 85.937 259.925 86.3672 260.272L105.791 275.97L108 277.751L148.291 310.309C149.036 310.914 149.971 311.251 150.94 311.265C151.908 311.279 152.853 310.969 153.616 310.386C153.826 310.225 154.019 310.043 154.191 309.843C154.219 309.817 154.245 309.79 154.269 309.76L155.047 308.841L147.631 305.083Z" fill="#DE7673"/>
<path d="M117.943 259.474L100.754 245.735C99.5259 244.753 98.1117 244.016 96.5922 243.568C95.0726 243.12 93.4776 242.968 91.8981 243.122C90.3186 243.275 88.7855 243.732 87.3865 244.464C85.9875 245.196 84.7498 246.191 83.7442 247.391C82.7387 248.59 81.9849 249.972 81.5258 251.456C81.0668 252.94 80.9116 254.498 81.069 256.041C81.387 259.156 82.9591 262.021 85.4395 264.005L102.629 277.744C103.386 278.35 104.334 278.682 105.313 278.683C106.292 278.684 107.241 278.355 108 277.751C108.226 277.58 108.43 277.383 108.607 277.164L118.538 265.313C118.889 264.898 119.154 264.418 119.315 263.903C119.56 263.115 119.56 262.274 119.316 261.486C119.072 260.697 118.594 259.998 117.943 259.474Z" fill="#2F2E41"/>
<path d="M70.9389 202.219C69.1181 199.248 67.6931 195.974 68.3695 192.454C68.9735 189.31 71.2895 186.862 74.6198 186.541C76.6254 186.347 78.6214 186.87 80.5802 187.211C82.1859 187.486 83.8176 187.589 85.4462 187.519C88.7233 187.373 91.9357 186.578 94.8878 185.18C97.8842 183.811 100.546 181.83 102.693 179.372C104.841 176.914 106.425 174.035 107.338 170.93C109.325 163.863 107.85 155.838 103.13 150.086L104.768 149.664L102.636 156.507C102.594 156.648 102.52 156.777 102.42 156.885C102.32 156.994 102.196 157.079 102.058 157.134C101.919 157.189 101.77 157.213 101.62 157.203C101.471 157.194 101.326 157.151 101.196 157.079C97.3307 154.694 93.0096 153.1 88.4947 152.395C83.9798 151.69 79.3654 151.888 74.9313 152.978C72.4258 153.593 70.0058 154.502 67.7243 155.685C66.611 156.263 65.6196 154.611 66.735 154.032C71.0203 151.849 75.7146 150.537 80.5338 150.176C85.3531 149.816 90.1971 150.414 94.7729 151.934C97.3789 152.802 99.8678 153.974 102.185 155.426L100.746 155.998L102.878 149.155C102.926 148.995 103.015 148.849 103.137 148.733C103.259 148.617 103.41 148.533 103.575 148.491C103.74 148.448 103.913 148.448 104.078 148.49C104.243 148.533 104.394 148.616 104.516 148.732C106.711 151.452 108.32 154.577 109.245 157.921C110.171 161.264 110.394 164.755 109.901 168.185C109.424 171.565 108.222 174.809 106.372 177.703C104.522 180.598 102.067 183.077 99.1671 184.98C96.2703 186.89 93.0145 188.22 89.588 188.893C86.1616 189.565 82.6326 189.568 79.2051 188.9C77.287 188.54 75.1117 188.024 73.2297 188.809C72.5471 189.13 71.9453 189.595 71.4673 190.169C70.9892 190.743 70.6464 191.413 70.4634 192.132C69.3969 195.662 71.2116 199.014 73.0653 201.949L70.9389 202.219Z" fill="#2F2E41"/>
<path d="M198.5 272.926L166.18 254.656C165.375 254.202 164.475 253.929 163.548 253.86C162.621 253.79 161.69 253.925 160.823 254.254C159.957 254.583 159.177 255.097 158.541 255.76C157.905 256.423 157.43 257.217 157.15 258.083L147.847 286.959L143.966 299.014C143.526 300.374 143.593 301.842 144.153 303.159C144.714 304.476 145.733 305.557 147.03 306.212L154.191 309.843L177.554 321.681C178.438 322.13 179.42 322.364 180.416 322.364C181.151 322.362 181.881 322.235 182.572 321.987L182.618 321.968C183.434 321.664 184.176 321.195 184.795 320.592C185.414 319.99 185.896 319.267 186.211 318.471L201.186 280.342C201.719 278.996 201.742 277.508 201.249 276.148C200.757 274.788 199.782 273.645 198.5 272.926ZM199.964 279.889L184.989 318.018C184.74 318.647 184.358 319.217 183.868 319.692C183.379 320.167 182.792 320.536 182.147 320.775L182.115 320.788C181.474 321.019 180.791 321.117 180.11 321.076C179.428 321.036 178.762 320.857 178.155 320.551L155.047 308.841L147.631 305.083C146.607 304.566 145.802 303.711 145.359 302.671C144.917 301.631 144.866 300.471 145.214 299.397L148.931 287.84L158.392 258.466C158.614 257.783 158.99 257.158 159.492 256.635C159.994 256.113 160.61 255.707 161.293 255.448C161.977 255.188 162.711 255.082 163.443 255.136C164.174 255.19 164.884 255.403 165.52 255.76L197.84 274.03C198.853 274.597 199.624 275.5 200.014 276.575C200.403 277.65 200.386 278.825 199.964 279.889Z" fill="#3F3D56"/>
<path d="M187.656 285.143C187.329 285.143 187.007 285.062 186.72 284.909L165.159 273.422C164.705 273.178 164.368 272.768 164.222 272.282C164.077 271.795 164.134 271.273 164.383 270.828C164.631 270.383 165.05 270.053 165.547 269.909C166.045 269.765 166.58 269.82 167.036 270.061L188.597 281.547C188.979 281.751 189.281 282.074 189.455 282.464C189.629 282.854 189.665 283.29 189.557 283.702C189.449 284.114 189.204 284.48 188.86 284.741C188.515 285.002 188.092 285.143 187.656 285.143Z" fill="#DE7673"/>
<path d="M183.736 293.439C183.409 293.439 183.087 293.358 182.8 293.205L161.239 281.718C160.785 281.474 160.448 281.064 160.302 280.578C160.157 280.091 160.214 279.569 160.463 279.124C160.711 278.679 161.13 278.348 161.627 278.205C162.125 278.061 162.66 278.116 163.116 278.357L184.677 289.843C185.059 290.047 185.361 290.37 185.535 290.76C185.709 291.15 185.745 291.586 185.637 291.998C185.529 292.41 185.284 292.776 184.94 293.037C184.595 293.298 184.172 293.439 183.736 293.439Z" fill="#DE7673"/>
<path d="M180.47 302.373C180.142 302.373 179.82 302.292 179.533 302.139L157.973 290.652C157.518 290.408 157.181 289.998 157.035 289.512C156.89 289.026 156.948 288.503 157.196 288.058C157.444 287.613 157.863 287.283 158.361 287.139C158.858 286.995 159.393 287.05 159.85 287.291L181.41 298.777C181.792 298.981 182.094 299.304 182.268 299.694C182.442 300.084 182.478 300.52 182.37 300.932C182.263 301.345 182.017 301.71 181.673 301.971C181.329 302.232 180.905 302.373 180.47 302.373Z" fill="#DE7673"/>
<path d="M408.468 121.595H317.831C316.528 121.594 315.279 121.087 314.358 120.188C313.437 119.288 312.919 118.068 312.917 116.795V4.7998C312.919 3.52726 313.437 2.30725 314.358 1.40742C315.279 0.5076 316.528 0.00144748 317.831 0H408.468C409.771 0.0014559 411.02 0.507612 411.941 1.40743C412.863 2.30726 413.381 3.52726 413.382 4.7998V116.795C413.381 118.068 412.863 119.288 411.941 120.188C411.02 121.087 409.771 121.594 408.468 121.595ZM317.831 1.06663C316.818 1.06773 315.846 1.46141 315.13 2.16127C314.413 2.86114 314.01 3.81004 314.009 4.7998V116.795C314.01 117.785 314.413 118.734 315.13 119.434C315.846 120.134 316.818 120.527 317.831 120.528H408.468C409.482 120.527 410.453 120.134 411.17 119.434C411.886 118.734 412.289 117.785 412.29 116.795V4.7998C412.289 3.81004 411.886 2.86114 411.17 2.16127C410.453 1.46141 409.482 1.06774 408.468 1.06663H317.831Z" fill="#3F3D56"/>
<path d="M355.61 53.8333H335.659C335.008 53.8326 334.383 53.5796 333.922 53.1296C333.462 52.6797 333.203 52.0697 333.202 51.4334V28.4373C333.203 27.801 333.462 27.191 333.922 26.741C334.383 26.2911 335.008 26.0381 335.659 26.0374H355.61C356.261 26.0381 356.886 26.2911 357.347 26.741C357.807 27.191 358.066 27.801 358.067 28.4373V51.4334C358.066 52.0697 357.807 52.6797 357.347 53.1296C356.886 53.5796 356.261 53.8326 355.61 53.8333Z" fill="#DE7673"/>
<path d="M394.377 64.4996H374.425C373.774 64.4989 373.149 64.2458 372.689 63.7959C372.228 63.346 371.969 62.736 371.968 62.0997V39.1035C371.969 38.4672 372.228 37.8572 372.689 37.4073C373.149 36.9574 373.774 36.7043 374.425 36.7036H394.377C395.028 36.7043 395.652 36.9574 396.113 37.4073C396.574 37.8572 396.833 38.4672 396.834 39.1035V62.0997C396.833 62.736 396.574 63.346 396.113 63.7959C395.652 64.2458 395.028 64.4989 394.377 64.4996Z" fill="#CCCCCC"/>
<path d="M363.254 97.0316H343.303C342.652 97.0309 342.027 96.7778 341.566 96.3279C341.106 95.878 340.847 95.268 340.846 94.6317V71.6355C340.847 70.9992 341.106 70.3892 341.566 69.9393C342.027 69.4894 342.652 69.2363 343.303 69.2356H363.254C363.906 69.2363 364.53 69.4894 364.991 69.9393C365.451 70.3892 365.71 70.9992 365.711 71.6355V94.6317C365.71 95.268 365.451 95.878 364.991 96.3279C364.53 96.7778 363.906 97.0309 363.254 97.0316Z" fill="#FF6584"/>
<path d="M290.239 91.3237C289.862 90.4497 289.231 89.7028 288.424 89.1754C287.617 88.648 286.67 88.3632 285.699 88.3563H195.061C193.758 88.357 192.508 88.8628 191.587 89.7626C190.666 90.6624 190.148 91.8826 190.147 93.1551V205.151C190.148 206.423 190.666 207.643 191.587 208.543C192.508 209.443 193.758 209.949 195.061 209.949H285.699C287.001 209.948 288.25 209.441 289.171 208.542C290.092 207.642 290.61 206.423 290.612 205.151V93.1551C290.614 92.5265 290.487 91.9038 290.239 91.3237ZM289.521 205.151C289.519 206.14 289.116 207.089 288.4 207.789C287.683 208.489 286.712 208.882 285.699 208.884H195.061C194.047 208.884 193.075 208.49 192.358 207.79C191.641 207.09 191.239 206.141 191.238 205.151V93.1551C191.24 92.1654 191.643 91.2166 192.359 90.5168C193.076 89.817 194.047 89.4232 195.061 89.422H285.699C286.462 89.4248 287.207 89.6497 287.839 90.068C288.471 90.4863 288.961 91.0789 289.246 91.7704C289.302 91.9082 289.35 92.0488 289.39 92.1916C289.477 92.5057 289.521 92.8297 289.521 93.1551V205.151Z" fill="#3F3D56"/>
<path d="M271.322 114.799H244.021C243.442 114.799 242.886 114.574 242.477 114.174C242.067 113.774 241.837 113.231 241.837 112.665C241.837 112.1 242.067 111.557 242.477 111.157C242.886 110.757 243.442 110.532 244.021 110.532H271.322C271.901 110.532 272.456 110.757 272.866 111.157C273.275 111.557 273.506 112.1 273.506 112.665C273.506 113.231 273.275 113.774 272.866 114.174C272.456 114.574 271.901 114.799 271.322 114.799Z" fill="#3F3D56"/>
<path d="M271.322 125.998H244.021C243.442 125.998 242.886 125.773 242.477 125.373C242.067 124.973 241.837 124.431 241.837 123.865C241.837 123.299 242.067 122.757 242.477 122.356C242.886 121.956 243.442 121.732 244.021 121.732H271.322C271.901 121.732 272.456 121.956 272.866 122.356C273.275 122.757 273.506 123.299 273.506 123.865C273.506 124.431 273.275 124.973 272.866 125.373C272.456 125.773 271.901 125.998 271.322 125.998Z" fill="#3F3D56"/>
<path d="M230.013 132.375H210.062C209.411 132.375 208.786 132.121 208.326 131.672C207.865 131.222 207.606 130.612 207.605 129.975V106.979C207.606 106.343 207.865 105.733 208.326 105.283C208.786 104.833 209.411 104.58 210.062 104.579H230.013C230.665 104.58 231.289 104.833 231.75 105.283C232.211 105.733 232.47 106.343 232.47 106.979V129.975C232.47 130.612 232.211 131.222 231.75 131.672C231.289 132.121 230.665 132.375 230.013 132.375Z" fill="#DE7673"/>
<path d="M271.132 148.931H209.434C209.146 148.931 208.862 148.876 208.597 148.769C208.331 148.662 208.09 148.505 207.887 148.307C207.684 148.109 207.522 147.874 207.412 147.615C207.302 147.355 207.246 147.078 207.246 146.797C207.246 146.517 207.302 146.239 207.412 145.98C207.522 145.721 207.684 145.486 207.887 145.288C208.09 145.089 208.331 144.932 208.597 144.825C208.862 144.718 209.146 144.664 209.434 144.664H271.132C271.711 144.665 272.266 144.89 272.674 145.29C273.083 145.69 273.313 146.232 273.313 146.797C273.313 147.362 273.083 147.904 272.674 148.304C272.266 148.704 271.711 148.93 271.132 148.931Z" fill="#CCCCCC"/>
<path d="M271.132 160.13H209.434C209.146 160.131 208.862 160.076 208.597 159.969C208.331 159.862 208.09 159.705 207.887 159.507C207.684 159.308 207.522 159.073 207.412 158.814C207.302 158.555 207.246 158.277 207.246 157.997C207.246 157.716 207.302 157.439 207.412 157.18C207.522 156.921 207.684 156.685 207.887 156.487C208.09 156.289 208.331 156.132 208.597 156.025C208.862 155.918 209.146 155.863 209.434 155.864H271.132C271.712 155.864 272.267 156.088 272.677 156.488C273.086 156.888 273.316 157.431 273.316 157.997C273.316 158.563 273.086 159.105 272.677 159.505C272.267 159.905 271.712 160.13 271.132 160.13Z" fill="#CCCCCC"/>
<path d="M271.132 171.33H209.434C209.146 171.33 208.862 171.275 208.597 171.168C208.331 171.061 208.09 170.904 207.887 170.706C207.684 170.508 207.522 170.273 207.412 170.014C207.302 169.755 207.246 169.477 207.246 169.196C207.246 168.916 207.302 168.638 207.412 168.379C207.522 168.12 207.684 167.885 207.887 167.687C208.09 167.489 208.331 167.331 208.597 167.225C208.862 167.118 209.146 167.063 209.434 167.063H271.132C271.712 167.063 272.267 167.288 272.677 167.688C273.086 168.088 273.316 168.631 273.316 169.196C273.316 169.762 273.086 170.305 272.677 170.705C272.267 171.105 271.712 171.33 271.132 171.33Z" fill="#CCCCCC"/>
<path d="M271.132 182.529H209.434C209.146 182.53 208.862 182.475 208.597 182.368C208.331 182.261 208.09 182.104 207.887 181.906C207.684 181.708 207.522 181.472 207.412 181.213C207.302 180.954 207.246 180.676 207.246 180.396C207.246 180.115 207.302 179.838 207.412 179.579C207.522 179.32 207.684 179.084 207.887 178.886C208.09 178.688 208.331 178.531 208.597 178.424C208.862 178.317 209.146 178.262 209.434 178.263H271.132C271.712 178.263 272.267 178.487 272.677 178.888C273.086 179.288 273.316 179.83 273.316 180.396C273.316 180.962 273.086 181.504 272.677 181.904C272.267 182.304 271.712 182.529 271.132 182.529Z" fill="#CCCCCC"/>
<path d="M271.132 193.729H209.434C209.146 193.729 208.862 193.674 208.597 193.567C208.331 193.46 208.09 193.303 207.887 193.105C207.684 192.907 207.522 192.672 207.412 192.413C207.302 192.154 207.246 191.876 207.246 191.595C207.246 191.315 207.302 191.037 207.412 190.778C207.522 190.519 207.684 190.284 207.887 190.086C208.09 189.888 208.331 189.731 208.597 189.624C208.862 189.517 209.146 189.462 209.434 189.462H271.132C271.711 189.463 272.266 189.688 272.674 190.088C273.083 190.488 273.313 191.03 273.313 191.595C273.313 192.161 273.083 192.703 272.674 193.103C272.266 193.503 271.711 193.728 271.132 193.729Z" fill="#CCCCCC"/>
<path d="M358.941 133.826L307.271 181.875L308.024 182.648L359.694 134.599L358.941 133.826Z" fill="#E6E6E6"/>
<path d="M306.789 183.059L313.347 182.983L313.335 181.916L307.95 181.979L308.28 176.729L307.189 176.665L306.789 183.059Z" fill="#E6E6E6"/>
<path d="M360.175 133.414L359.776 139.808L358.685 139.744L359.014 134.494L353.629 134.557L353.618 133.49L360.175 133.414Z" fill="#E6E6E6"/>
<path d="M333.483 164.103C336.8 164.103 339.489 161.477 339.489 158.237C339.489 154.997 336.8 152.371 333.483 152.371C330.166 152.371 327.477 154.997 327.477 158.237C327.477 161.477 330.166 164.103 333.483 164.103Z" fill="#E6E6E6"/>
<path d="M289.687 20.2354L238.017 68.2847L238.77 69.0573L290.44 21.008L289.687 20.2354Z" fill="#E6E6E6"/>
<path d="M237.535 69.4678L244.093 69.3925L244.081 68.3248L238.696 68.388L239.026 63.1386L237.934 63.0741L237.535 69.4678Z" fill="#E6E6E6"/>
<path d="M290.92 19.8229L290.522 26.2171L289.431 26.1533L289.759 20.9033L284.375 20.9664L284.364 19.8995L290.92 19.8229Z" fill="#E6E6E6"/>
<path d="M264.229 50.5127C267.546 50.5127 270.235 47.8862 270.235 44.6463C270.235 41.4063 267.546 38.7798 264.229 38.7798C260.911 38.7798 258.222 41.4063 258.222 44.6463C258.222 47.8862 260.911 50.5127 264.229 50.5127Z" fill="#E6E6E6"/>
<path d="M496.496 332.421H495.189V338.164H496.496V332.421Z" fill="#3F3D56"/>
<path d="M69 50.6286C80.3137 57.4896 98.1962 46.7906 104.153 37.443C105.133 35.9056 108.465 32.0411 107.978 30.0543C106.975 25.9628 100.813 28.66 99.117 30.3876C91.1264 38.526 105.146 44.3815 112.294 42.8393C128.52 39.3385 135.834 29.9831 143.785 16.8718" stroke="#252B3B" stroke-width="3" stroke-linecap="round"/>
<path d="M133.884 21.4605C135.375 19.4782 145.32 11.1394 146.284 15.0742C147.305 19.2404 145.222 25.9746 149.606 28.6336" stroke="#252B3B" stroke-width="3" stroke-linecap="round"/>
</g>
<defs>
<clipPath id="clip0_6_377">
<rect width="584" height="412" fill="white"/>
</clipPath>
</defs>
</svg>
