<svg width="94" height="84" viewBox="0 0 94 84" fill="none" xmlns="http://www.w3.org/2000/svg">
<rect x="-3.31372" y="32.3553" width="50" height="50" rx="8" transform="rotate(-45 -3.31372 32.3553)" fill="#EAF8F3"/>
<g filter="url(#filter0_d_7_583)">
<circle cx="51.6863" cy="38" r="30" fill="white"/>
</g>
<path d="M51.3628 28.0674C51.4647 28.0229 51.5746 28 51.6857 28C51.7969 28 51.9068 28.0229 52.0086 28.0674C55.989 29.8072 59.7858 31.94 63.3425 34.434C63.4679 34.5219 63.5656 34.6436 63.6244 34.7849C63.6832 34.9263 63.7006 35.0815 63.6745 35.2323C63.6484 35.3832 63.58 35.5235 63.4772 35.637C63.3744 35.7504 63.2415 35.8323 63.0939 35.873C59.4014 36.8929 55.8284 38.3044 52.436 40.0837L52.4327 40.0858L52.0668 40.2796C51.9497 40.3421 51.819 40.3749 51.6863 40.3749C51.5535 40.3749 51.4229 40.3421 51.3058 40.2796C49.8513 39.5023 48.3619 38.7922 46.8422 38.1516V37.9105C46.8422 37.7695 46.9143 37.6436 47.0273 37.5758C48.6519 36.5913 50.3233 35.6861 52.0356 34.8634C52.2285 34.7706 52.3767 34.605 52.4476 34.4029C52.5184 34.2009 52.5061 33.979 52.4133 33.786C52.3206 33.593 52.1549 33.4448 51.9529 33.374C51.7508 33.3031 51.5289 33.3154 51.3359 33.4082C49.577 34.2534 47.86 35.1834 46.191 36.1948C45.9536 36.3389 45.7487 36.5308 45.5896 36.7584C45.4304 36.9859 45.3203 37.2442 45.2664 37.5166C43.6317 36.8876 41.9671 36.3391 40.2787 35.873C40.1311 35.8323 39.9982 35.7504 39.8954 35.637C39.7926 35.5235 39.7241 35.3832 39.6981 35.2323C39.672 35.0815 39.6894 34.9263 39.7482 34.7849C39.8069 34.6436 39.9047 34.5219 40.03 34.434C43.5864 31.94 47.3828 29.8073 51.3628 28.0674Z" fill="#2AB87E"/>
<path d="M52.8267 41.7023C55.4704 40.2899 58.2311 39.108 61.0779 38.1698C61.2221 39.6917 61.3147 41.2298 61.3524 42.7819C61.3563 42.9443 61.3112 43.1041 61.2228 43.2405C61.1345 43.3768 61.0071 43.4833 60.8573 43.5461C57.8061 44.8204 54.8847 46.3855 52.1335 48.2196C52.0009 48.308 51.8451 48.3551 51.6857 48.3551C51.5264 48.3551 51.3706 48.308 51.238 48.2196C48.4871 46.3855 45.5661 44.8205 42.5153 43.5461C42.3653 43.4835 42.2376 43.3771 42.1491 43.2407C42.0606 43.1043 42.0153 42.9444 42.0191 42.7819C42.0568 41.2298 42.1494 39.6928 42.2936 38.1687C43.282 38.4945 44.2605 38.8499 45.2277 39.2343V40.6012C44.9951 40.7352 44.7996 40.9251 44.6589 41.1536C44.5182 41.3822 44.4367 41.6422 44.4217 41.9102C44.4067 42.1782 44.4588 42.4456 44.5732 42.6884C44.6877 42.9312 44.8608 43.1417 45.077 43.3007C44.9801 43.7097 44.8381 44.1112 44.6497 44.4954C45.1362 44.7247 45.6195 44.9626 46.0985 45.2069C46.3685 44.6574 46.5678 44.0758 46.6915 43.4761C46.9637 43.3551 47.1971 43.1612 47.3659 42.9157C47.5347 42.6703 47.6323 42.3829 47.6479 42.0854C47.6635 41.7879 47.5965 41.492 47.4543 41.2302C47.3121 40.9684 47.1002 40.7511 46.8422 40.6023V39.9081C48.0995 40.4577 49.3347 41.0566 50.5448 41.7034C50.8959 41.8909 51.2877 41.989 51.6857 41.989C52.0837 41.989 52.4756 41.8909 52.8267 41.7034V41.7023Z" fill="#2AB87E"/>
<path d="M43.5723 45.9959C44.0244 45.5449 44.3828 45.038 44.6486 44.4955C45.1362 44.7247 45.6195 44.9626 46.0985 45.2069C45.7463 45.9223 45.2786 46.5746 44.7143 47.1379C44.6404 47.2172 44.5513 47.2808 44.4522 47.3249C44.3532 47.3691 44.2463 47.3928 44.1379 47.3947C44.0295 47.3966 43.9219 47.3767 43.8214 47.3361C43.7208 47.2955 43.6295 47.235 43.5529 47.1584C43.4762 47.0817 43.4158 46.9904 43.3752 46.8899C43.3346 46.7894 43.3146 46.6817 43.3166 46.5733C43.3185 46.4649 43.3422 46.358 43.3863 46.259C43.4304 46.16 43.4941 46.0709 43.5734 45.997L43.5723 45.9959Z" fill="#2AB87E"/>
<defs>
<filter id="filter0_d_7_583" x="9.68628" y="0" width="84" height="84" filterUnits="userSpaceOnUse" color-interpolation-filters="sRGB">
<feFlood flood-opacity="0" result="BackgroundImageFix"/>
<feColorMatrix in="SourceAlpha" type="matrix" values="0 0 0 0 0 0 0 0 0 0 0 0 0 0 0 0 0 0 127 0" result="hardAlpha"/>
<feOffset dy="4"/>
<feGaussianBlur stdDeviation="6"/>
<feComposite in2="hardAlpha" operator="out"/>
<feColorMatrix type="matrix" values="0 0 0 0 0.941176 0 0 0 0 0.941176 0 0 0 0 0.94902 0 0 0 1 0"/>
<feBlend mode="normal" in2="BackgroundImageFix" result="effect1_dropShadow_7_583"/>
<feBlend mode="normal" in="SourceGraphic" in2="effect1_dropShadow_7_583" result="shape"/>
</filter>
</defs>
</svg>
