<svg width="63" height="39" viewBox="0 0 63 39" fill="none" xmlns="http://www.w3.org/2000/svg">
<path d="M1.50012 36.5168C1.77127 34.0764 4.12227 32.4211 5.59352 30.5996C8.88883 26.5197 13.5946 23.7492 16.6579 19.4947C17.1733 18.7788 21.1971 12.7646 21.1971 15.7661C21.1971 19.2683 20.4638 23.611 21.1971 27.0331C21.1989 27.0418 33.4917 13.3082 34.7337 14.5502C36.3541 16.1707 34.3284 22.1517 34.3284 24.4392C34.3284 29.6895 43.9951 18.311 45.3117 17.1441C49.2287 13.6721 51.5791 9.45806 55.1601 5.87708C56.2908 4.74645 57.7181 4.32764 58.4024 2.95901" stroke="#27996D" stroke-width="3" stroke-linecap="round"/>
<path d="M48.9187 2.95903C52.7647 2.95903 56.2757 1.5 60.2262 1.5C62.1548 1.5 61.3205 7.21931 61.3205 8.79517" stroke="#27996D" stroke-width="3" stroke-linecap="round"/>
</svg>
