<svg width="34" height="41" viewBox="0 0 34 41" fill="none" xmlns="http://www.w3.org/2000/svg">
<path d="M31.8772 35.4689L22.7017 35.4522L18.3975 0L31.9398 0.0242441L31.8772 35.4689Z" fill="#A0616A"/>
<path d="M0.440935 35.2057C0.154415 35.6871 0.000970175 37.2421 4.68233e-06 37.8025C-0.00294586 39.525 1.38894 40.9238 3.10891 40.9267L31.5246 40.9755C32.6979 40.9776 33.6508 40.0266 33.6528 38.8515L33.6548 37.6667C33.6548 37.6667 35.0666 34.1082 32.1801 29.7141C32.1801 29.7141 28.5772 33.1447 23.2117 27.7526L21.6316 24.8743L10.1442 33.2579L3.78348 34.0309C2.3919 34.2 1.15866 33.9998 0.440935 35.2057Z" fill="#2F2E41"/>
</svg>
