<svg width="185" height="231" viewBox="0 0 185 231" fill="none" xmlns="http://www.w3.org/2000/svg">
<path d="M103.223 91.4377L119.672 80.9618L126.359 85.0015L103.223 111.625V91.4377Z" fill="#FFB6B6"/>
<path d="M80.73 50.8908C80.73 50.8908 69.8048 53.4652 74.9461 68.268C80.0873 83.0708 96.7965 113.964 101.938 112.033C107.079 110.102 107.722 90.794 107.722 90.794C107.722 90.794 107.079 91.4376 104.508 88.8632C101.938 86.2888 101.938 87.4645 101.938 84.624C101.938 81.7836 99.8352 79.6779 99.8352 79.6779L97.4391 74.704C97.4391 74.704 97.4391 51.5344 87.7992 50.2472C78.1594 48.96 80.73 50.8908 80.73 50.8908Z" fill="#E6E6E6"/>
<path d="M131.773 84.3094C136.04 80.0365 137.362 74.4333 134.727 71.7941C132.092 69.155 126.497 70.4794 122.23 74.7523C117.963 79.0252 116.641 84.6284 119.276 87.2675C121.911 89.9066 127.507 88.5822 131.773 84.3094Z" fill="#FFB6B6"/>
<path d="M38.1762 136.168L49.3999 154.773L114.807 150.897L97.391 128.416L38.1762 136.168Z" fill="#E6E6E6"/>
<path d="M57.72 223.183C57.339 223.183 57.0072 222.901 56.9541 222.513L37.4093 79.5598C37.3513 79.1355 37.6476 78.7444 38.0711 78.6865C38.4944 78.6252 38.8848 78.925 38.943 79.3493L58.4878 222.302C58.5458 222.726 58.2495 223.117 57.826 223.175C57.7903 223.18 57.755 223.183 57.72 223.183Z" fill="#E6E6E6"/>
<path d="M38.1762 223.364C37.7487 223.364 37.4021 223.017 37.4021 222.589V79.4821C37.4021 79.054 37.7487 78.707 38.1762 78.707C38.6036 78.707 38.9502 79.0541 38.9502 79.4821V222.589C38.9502 223.017 38.6036 223.364 38.1762 223.364Z" fill="#E6E6E6"/>
<path d="M136.287 222.795C135.958 222.795 135.653 222.583 135.549 222.252L89.2992 75.036C89.1709 74.6276 89.3975 74.1924 89.8053 74.0637C90.2129 73.9357 90.6478 74.1624 90.7759 74.5705L137.025 221.787C137.154 222.195 136.927 222.63 136.519 222.759C136.442 222.783 136.364 222.795 136.287 222.795Z" fill="#E6E6E6"/>
<path d="M122.16 222.976C121.814 222.976 121.5 222.743 121.41 222.392L89.2873 92.4636C89.182 92.0488 89.4324 91.6267 89.8467 91.5211C90.2622 91.4163 90.6823 91.6665 90.7878 92.0813L122.911 222.01C123.016 222.425 122.766 222.847 122.351 222.953C122.287 222.969 122.223 222.976 122.16 222.976Z" fill="#E6E6E6"/>
<path d="M38.1762 81.762L91.7791 80.9365L101.648 137.331H38.9502L38.1762 81.762Z" fill="#E6E6E6"/>
<path d="M120.551 164.686L107.042 188.505L122.727 191.963L129.266 175.022L120.551 164.686Z" fill="#FFB6B6"/>
<path d="M111.894 184.008C111.894 184.008 111.369 180.123 108.283 181.356C105.197 182.589 96.2903 187.169 96.2903 187.169C96.2903 187.169 119.52 224.971 123.929 223.21C128.338 221.449 123.06 210.763 123.06 210.763L124.225 191.876L111.894 184.008Z" fill="#2F2E41"/>
<path d="M60.8076 118.469C60.8076 118.469 55.9876 140.673 70.7688 148.396C85.5499 156.119 135.999 137.133 135.999 137.133L112.863 171.849L128.929 178.323C128.929 178.323 165.561 130.053 162.99 122.33C160.42 114.607 143.068 113.963 143.068 113.963L103.866 115.894L93.5832 112.676L60.8076 118.469Z" fill="#2F2E41"/>
<path d="M100.565 175.257L79.3282 192.52L92.6813 201.457L104.928 188.061L100.565 175.257Z" fill="#FFB6B6"/>
<path d="M85.4815 190.099C85.4815 190.099 86.4039 186.29 83.0816 186.314C79.7592 186.337 69.7989 187.358 69.7989 187.358C69.7989 187.358 77.7013 231.034 82.4476 231C87.1938 230.966 86.1607 219.09 86.1607 219.09L94.1085 201.922L85.4815 190.099Z" fill="#2F2E41"/>
<path d="M61.7112 110.437C61.7112 110.437 49.1537 129.363 60.1153 141.943C71.0769 154.523 124.966 155.223 124.966 155.223L90.8019 179.128L103.415 191.013C103.415 191.013 155.074 159.401 155.486 151.271C155.897 143.14 139.969 136.218 139.969 136.218L102.753 123.73L94.3445 116.986L61.7112 110.437Z" fill="#2F2E41"/>
<path d="M93.9703 66.6011C93.9703 66.6011 81.7598 62.0959 75.9758 62.0959C75.4232 62.0959 74.8769 62.1603 74.3306 62.2761C70.6289 63.0613 67.2228 66.2472 65.5905 67.9848C64.9542 68.6671 64.5879 69.124 64.5879 69.124C64.5879 69.124 64.6265 68.6799 64.7036 67.9012C65.0828 63.8079 66.4838 50.376 68.9966 41.7775C69.8963 38.7075 70.931 36.2554 72.1199 35.0647C74.8897 32.2844 76.1686 28.9505 76.7599 26.4662C77.2612 24.3359 77.2612 22.8363 77.2612 22.8363L72.5762 20.8154L71.7086 15.1389C71.5543 15.8082 70.841 17.1147 68.4439 19.6183C68.2382 19.8307 68.0133 20.0109 67.7755 20.1654C64.318 22.3408 57.268 18.5564 53.4699 16.1751C55.0509 10.6723 57.9171 5.63933 63.1227 4.81554C75.3332 2.88474 75.3332 -4.19484 83.0451 3.52835C83.6813 4.16551 84.324 4.77693 84.9666 5.36903C87.4345 10.0931 88.3342 16.4261 88.6555 20.8283C88.8869 23.9111 88.829 26.0543 88.829 26.0543C88.829 26.0543 92.0423 45.3623 97.1836 49.2239C102.325 53.0855 93.9703 66.6011 93.9703 66.6011Z" fill="#2F2E41"/>
<path d="M70.1919 35.7083L61.5084 48.4643L81.1171 53.7296V35.7083H70.1919Z" fill="#FFB6B6"/>
<path opacity="0.1" d="M70.1919 35.7083L61.5084 48.4643L81.1171 53.7296V35.7083H70.1919Z" fill="black"/>
<path d="M82.3367 47.9945L63.6995 40.2713C63.6995 40.2713 38.6358 51.2125 40.5638 72.4513C42.4918 93.6901 60.4863 130.375 60.4863 130.375L96.4752 114.929L92.6192 73.7385L82.3367 47.9945Z" fill="#E6E6E6"/>
<path d="M74.3458 41.4042C83.4267 41.4042 90.7883 34.0317 90.7883 24.9373C90.7883 15.8428 83.4267 8.47033 74.3458 8.47033C65.2649 8.47033 57.9034 15.8428 57.9034 24.9373C57.9034 34.0317 65.2649 41.4042 74.3458 41.4042Z" fill="#FFB6B6"/>
<path d="M96.5409 18.9747C93.3276 22.1927 90.757 25.4107 90.757 25.4107L89.4717 20.2619C89.4717 20.2619 89.176 20.4807 88.6555 20.8283C86.6183 22.2185 81.1492 25.7132 76.7599 26.4662C74.8062 26.8009 73.071 26.5885 71.9399 25.4107C69.5428 22.9071 68.8295 21.6006 68.6752 20.9313L67.8076 26.6078L63.1227 28.6287C63.1227 28.6287 63.1227 35.6954 68.2639 40.8571C68.5146 41.1081 68.7588 41.4171 68.9966 41.7775C71.4515 45.4846 73.2124 54.5594 74.3306 62.2761C75.3203 69.1369 75.7959 74.9164 75.7959 74.9164C75.7959 74.9164 70.931 68.8151 65.5905 67.9848C65.2948 67.9398 64.9992 67.9076 64.7036 67.9012C64.6072 67.8883 64.5044 67.8883 64.408 67.8883C58.624 67.8883 46.4135 72.3935 46.4135 72.3935C46.4135 72.3935 38.059 58.8779 43.2002 55.0163C48.3415 51.1547 51.5548 31.8467 51.5548 31.8467C51.5548 31.8467 51.3427 23.5829 53.4699 16.1751C55.0509 10.6723 57.9171 5.63934 63.1227 4.81556C75.3332 2.88476 75.3332 -4.19485 83.0451 3.52835C83.6813 4.1655 84.324 4.77695 84.9666 5.36905C92.1516 11.9853 99.4907 16.0206 96.5409 18.9747Z" fill="#2F2E41"/>
<path d="M24.4258 105.369H18.3194V226.148H24.4258V105.369Z" fill="#3F3D56"/>
<path d="M172.507 105.369H166.401V226.148H172.507V105.369Z" fill="#3F3D56"/>
<path d="M133.579 54.1528H93.1235V94.6673H133.579V54.1528Z" fill="#DE7673"/>
<path d="M69.8048 97.2303L86.2533 86.7544L92.9405 90.7941L69.8048 117.418V97.2303Z" fill="#FFB6B6"/>
<path d="M47.3117 56.6833C47.3117 56.6833 36.3865 59.2577 41.5278 74.0605C46.6691 88.8632 63.3782 119.756 68.5195 117.825C73.6607 115.894 74.3034 96.5864 74.3034 96.5864C74.3034 96.5864 73.6607 97.23 71.0901 94.6556C68.5195 92.0812 68.5195 93.257 68.5195 90.4165C68.5195 87.576 66.4169 85.4704 66.4169 85.4704L64.0209 80.4964C64.0209 80.4964 64.0209 57.3268 54.381 56.0396C44.7411 54.7524 47.3117 56.6833 47.3117 56.6833Z" fill="#E6E6E6"/>
<path d="M98.3549 90.102C102.622 85.8291 103.944 80.2258 101.309 77.5867C98.6735 74.9476 93.0784 76.272 88.8118 80.5449C84.5452 84.8177 83.2227 90.421 85.858 93.0601C88.4932 95.6992 94.0883 94.3748 98.3549 90.102Z" fill="#FFB6B6"/>
<path d="M184.72 100.783H0V114.543H184.72V100.783Z" fill="#3F3D56"/>
</svg>
