<svg width="419" height="395" viewBox="0 0 419 395" fill="none" xmlns="http://www.w3.org/2000/svg">
<path d="M304.196 223.906V332.897L322.427 362.608L323.814 364.868H395.748L397.202 223.906H304.196Z" fill="#E6E6E6"/>
<path opacity="0.1" d="M304.196 223.906V332.897L322.427 362.608L323.546 223.906H304.196Z" fill="black"/>
<path d="M130.537 221V329.991L112.306 359.702L110.918 361.961H38.9844L37.5309 221H130.537Z" fill="#E6E6E6"/>
<path opacity="0.1" d="M130.537 221V329.991L112.306 359.702L111.187 221H130.537Z" fill="black"/>
<path d="M419 218.82V225.359H28.085V215.913L64.4152 197.022H387.03L419 218.82Z" fill="#E6E6E6"/>
<path opacity="0.1" d="M419 218.82V225.359H28.085V215.913L419 218.82Z" fill="black"/>
<path d="M84.0341 251.517H66.5952L59.3291 246.431H92.0266L84.0341 251.517Z" fill="#3F3D56"/>
<path d="M84.0341 272.589H66.5952L59.3291 267.503H92.0266L84.0341 272.589Z" fill="#3F3D56"/>
<path d="M84.0341 302.38H66.5952L59.3291 297.293H92.0266L84.0341 302.38Z" fill="#3F3D56"/>
<path d="M84.0341 332.171H66.5952L59.3291 327.085H92.0266L84.0341 332.171Z" fill="#3F3D56"/>
<path d="M350.699 254.423H368.138L375.404 249.337H342.706L350.699 254.423Z" fill="#3F3D56"/>
<path d="M350.699 275.495H368.138L375.404 270.409H342.706L350.699 275.495Z" fill="#3F3D56"/>
<path d="M350.699 305.286H368.138L375.404 300.2H342.706L350.699 305.286Z" fill="#3F3D56"/>
<path d="M350.699 335.077H368.138L375.404 329.991H342.706L350.699 335.077Z" fill="#3F3D56"/>
<path d="M362.574 70.9842H215.765C215.036 70.9842 214.314 71.1277 213.641 71.4067C212.967 71.6857 212.355 72.0946 211.839 72.6102C211.324 73.1258 210.915 73.7379 210.636 74.4116C210.357 75.0852 210.213 75.8072 210.213 76.5364V175.431C210.213 176.16 210.357 176.882 210.636 177.555C210.915 178.229 211.324 178.841 211.839 179.357C212.355 179.872 212.967 180.281 213.641 180.56C214.314 180.839 215.036 180.983 215.765 180.983H271.495L269.407 194.313C269.407 194.313 257.475 200.652 265.865 200.838C274.255 201.025 313.78 200.838 313.78 200.838C313.78 200.838 321.424 200.838 309.305 194.127L307.341 180.983H362.574C363.303 180.983 364.025 180.839 364.699 180.56C365.373 180.281 365.985 179.872 366.5 179.357C367.016 178.841 367.425 178.229 367.704 177.555C367.983 176.882 368.126 176.16 368.126 175.431V76.5364C368.126 75.8072 367.983 75.0852 367.704 74.4116C367.425 73.7379 367.016 73.1258 366.5 72.6102C365.985 72.0946 365.373 71.6857 364.699 71.4067C364.025 71.1277 363.303 70.9842 362.574 70.9842Z" fill="#3F3D56"/>
<path d="M362.813 76.8572H215.527V159.263H362.813V76.8572Z" fill="#F2F2F2"/>
<path d="M289.17 75.179C289.685 75.179 290.102 74.7617 290.102 74.2468C290.102 73.732 289.685 73.3146 289.17 73.3146C288.655 73.3146 288.238 73.732 288.238 74.2468C288.238 74.7617 288.655 75.179 289.17 75.179Z" fill="#F2F2F2"/>
<path d="M289.17 176.974C291.126 176.974 292.712 175.388 292.712 173.432C292.712 171.476 291.126 169.89 289.17 169.89C287.213 169.89 285.627 171.476 285.627 173.432C285.627 175.388 287.213 176.974 289.17 176.974Z" fill="#F2F2F2"/>
<path d="M283.65 210.906V212.771H183.346V211.279L183.484 210.906L185.956 204.194H281.599L283.65 210.906Z" fill="#3F3D56"/>
<path d="M322.25 209.081C322.067 209.862 321.377 210.686 319.819 211.465C314.226 214.262 302.853 210.72 302.853 210.72C302.853 210.72 294.09 209.228 294.09 205.313C294.336 205.144 294.593 204.992 294.858 204.856C297.21 203.612 305.007 200.542 318.831 204.986C319.85 205.306 320.76 205.902 321.459 206.708C321.769 207.013 322.002 207.387 322.14 207.799C322.277 208.212 322.315 208.651 322.25 209.081Z" fill="#3F3D56"/>
<path opacity="0.1" d="M322.25 209.081C315.404 211.704 309.302 211.9 303.039 207.55C300.671 205.799 297.803 204.855 294.858 204.856C297.21 203.612 305.007 200.542 318.831 204.986C319.85 205.306 320.76 205.902 321.459 206.708C321.769 207.013 322.002 207.387 322.14 207.799C322.277 208.212 322.315 208.651 322.25 209.081Z" fill="black"/>
<path d="M313.666 207.55C315.005 207.55 316.09 207.216 316.09 206.805C316.09 206.393 315.005 206.059 313.666 206.059C312.328 206.059 311.243 206.393 311.243 206.805C311.243 207.216 312.328 207.55 313.666 207.55Z" fill="#F2F2F2"/>
<path opacity="0.1" d="M283.65 210.906V212.771H183.346V211.279L183.484 210.906H283.65Z" fill="black"/>
<path d="M55.7703 0.0169043C54.7523 -0.0666756 53.733 0.161036 52.8474 0.669864C51.9778 1.26538 51.4297 2.30867 50.8702 3.27951C48.7312 7.03573 45.8354 10.3068 42.3662 12.8855C39.8393 14.7366 36.6268 17.0447 37.0591 20.4577C37.2872 21.5848 37.7036 22.6654 38.2908 23.6542C40.6219 28.3597 46.983 31.9962 46.3573 37.3656C48.6732 33.4884 45.5755 31.5713 47.8914 27.6941C48.9944 25.8477 50.9103 23.7635 52.5755 24.923C53.1331 25.3113 53.4992 26.0076 54.0797 26.3483C55.465 27.1612 56.9387 25.6071 58.1649 24.5064C62.3931 20.7107 68.4061 21.7051 73.6678 22.8877C76.1518 23.4461 78.8802 24.1786 80.3486 26.5527C82.2793 29.6742 78.5144 33.0454 77.5631 36.5745C77.4854 36.8752 77.4818 37.1903 77.5524 37.4927C77.623 37.7952 77.7659 38.076 77.9687 38.3112C78.1715 38.5464 78.4283 38.729 78.7171 38.8433C79.0058 38.9576 79.318 39.0003 79.6269 38.9677C81.2056 38.812 83.0759 38.6844 83.1693 37.9915C85.1557 38.0622 87.5896 37.8373 88.4406 35.769C88.7008 34.9506 88.8383 34.0982 88.8487 33.2396C89.161 29.7653 90.6356 26.5956 91.6125 23.2888C92.5894 19.982 93.0141 16.1067 91.3656 13.1749C90.7772 12.1994 90.0496 11.3151 89.2057 10.5499C79.8505 1.49649 67.5505 0.00346564 55.7703 0.0169043Z" fill="#2F2E41"/>
<path d="M48.3919 44.1477C48.3919 44.1477 50.4264 61.1026 42.9663 62.459C35.5061 63.8154 49.7482 86.8741 49.7482 86.8741L83.6581 90.9433L75.5198 63.8154C75.5198 63.8154 70.0942 61.7808 73.4852 48.2168C76.8762 34.6529 48.3919 44.1477 48.3919 44.1477Z" fill="#FFB8B8"/>
<path d="M27.7068 335.433L30.4198 372.734H44.6615L40.5928 335.433H27.7068Z" fill="#FFB8B8"/>
<path d="M132.149 264.901L134.184 296.098L149.783 289.316L143.678 263.545L132.149 264.901Z" fill="#FFB8B8"/>
<path d="M17.5338 193.012C17.5338 193.012 18.212 232.348 22.2812 245.233C26.3504 258.119 25.6722 258.797 24.994 260.832C24.3158 262.866 23.6376 261.51 23.6376 264.901C23.6376 268.292 22.2812 321.87 23.6376 326.617C24.994 331.364 19.5684 339.503 23.6376 340.181C27.7068 340.859 46.6963 340.181 47.3745 336.112C48.0527 332.043 41.949 330.686 44.6617 327.973C47.3745 325.261 51.4437 269.648 51.4437 269.648L60.9385 230.991L78.5716 210.645H115.872L127.402 255.406C127.402 255.406 122.654 268.292 126.045 268.292C129.436 268.292 149.782 272.361 149.782 257.441C149.782 242.521 143 198.438 141.644 197.081C140.288 195.725 142.322 190.978 140.288 188.943C138.253 186.908 114.516 172.666 105.7 169.953C96.883 167.241 84.5148 164.012 84.5148 164.012L17.5338 193.012Z" fill="#2F2E41"/>
<path d="M149.782 283.89C149.782 283.89 139.609 280.499 134.862 290.672C130.115 300.845 132.149 303.558 132.149 303.558C132.149 303.558 147.748 308.984 150.461 306.271C151.641 305.091 155.389 304.681 159.246 304.594C165.122 304.462 166.685 296.15 161.136 294.214C160.971 294.156 160.803 294.106 160.634 294.063C155.208 292.707 149.782 283.89 149.782 283.89Z" fill="#2F2E41"/>
<path d="M63.6513 55.3378C74.888 55.3378 83.9972 46.2287 83.9972 34.9919C83.9972 23.7552 74.888 14.646 63.6513 14.646C52.4145 14.646 43.3053 23.7552 43.3053 34.9919C43.3053 46.2287 52.4145 55.3378 63.6513 55.3378Z" fill="#FFB8B8"/>
<path d="M37.2016 70.9365C37.2016 70.9365 70.4333 77.7185 78.5717 66.8673C86.71 56.0162 90.101 97.3862 90.101 97.3862L94.1702 140.791L88.0664 164.528C88.0664 164.528 56.1911 190.299 46.0182 192.334C35.8452 194.369 20.2466 195.725 20.2466 195.725C20.2466 195.725 24.9941 120.445 24.9941 119.089C24.9941 117.732 37.2016 70.9365 37.2016 70.9365Z" fill="#DE7673"/>
<path d="M47.3082 58.2171C47.3082 58.2171 39.9144 53.9815 37.8798 58.0507C35.8452 62.1199 16.8557 72.2928 14.8211 72.2928C12.7865 72.2928 18.8903 128.583 16.1775 135.365C13.4647 142.147 0.578932 191.656 8.03911 195.725C15.4993 199.794 10.0737 191.656 17.5339 201.829C24.9941 212.002 61.6167 212.002 63.6513 207.932C65.6859 203.863 47.3746 173.344 50.7656 144.86C54.1566 116.376 59.5821 77.0402 54.8348 71.6146C50.0874 66.189 47.3082 58.2171 47.3082 58.2171Z" fill="#2F2E41"/>
<path d="M71.7897 62.7979L72.7343 59.547C72.7343 59.547 100.952 68.9017 102.309 75.0055C103.665 81.1093 102.987 123.836 98.2394 127.227C93.492 130.618 86.71 136.043 91.4574 144.182C96.2048 152.32 101.63 161.137 105.7 161.815C109.769 162.493 117.229 167.24 115.194 171.988C113.16 176.735 88.7446 167.919 88.7446 167.919C88.7446 167.919 72.4679 155.711 73.1461 136.721C73.8243 117.732 71.7897 62.7979 71.7897 62.7979Z" fill="#2F2E41"/>
<path d="M95.5266 142.825L79.2499 173.344C79.2499 173.344 55.5129 197.759 69.0769 200.472C82.6409 203.185 90.1011 178.092 90.1011 178.092L107.734 152.998L95.5266 142.825Z" fill="#FFB8B8"/>
<path d="M56.7614 5.34046C55.9413 5.27969 55.1199 5.43902 54.382 5.80197C53.7148 6.28924 53.165 6.91941 52.7726 7.64644C50.9636 10.3675 48.6056 12.6801 45.8499 14.4359C43.793 15.7442 41.1778 17.3756 41.5298 19.7879C41.7208 20.5967 42.0608 21.3628 42.5324 22.0471C44.4365 25.4066 45.1946 29.2949 44.6918 33.1236L50.3477 24.9025C51.2455 23.5975 52.8052 22.1244 54.1608 22.944C54.6147 23.2184 54.9127 23.7105 55.3853 23.9513C56.5129 24.5259 57.7125 23.4275 58.7107 22.6495C62.1527 19.9667 67.0476 20.6695 71.3308 21.5054C73.3529 21.9 75.5739 22.4178 76.7693 24.0958C78.7557 26.8843 76.6815 30.9136 77.8408 34.135C78.1654 33.9078 78.441 33.6177 78.6513 33.282C78.8617 32.9463 79.0025 32.5718 79.0654 32.1807C80.6824 32.2307 82.6637 32.0717 83.3565 30.6098C83.5672 30.0368 83.6795 29.4324 83.6886 28.822C83.9429 26.3664 85.1433 24.1261 85.9385 21.7889C86.7337 19.4517 87.0795 16.7126 85.7375 14.6404C85.2466 13.9383 84.654 13.313 83.9793 12.7851C76.3638 6.38621 66.351 5.33096 56.7614 5.34046Z" fill="#2F2E41"/>
<path d="M95.5266 72.2927L101.845 73.9699C101.845 73.9699 116.551 111.628 113.16 137.4C109.769 163.171 107.734 157.746 107.734 157.746C107.734 157.746 102.309 145.538 90.101 148.251L95.5266 72.2927Z" fill="#2F2E41"/>
<path d="M28.6464 367.805C27.011 370.027 27.3389 373.204 25.8902 375.553C24.6344 377.588 22.2678 378.656 20.6971 380.459C20.196 381.059 19.7492 381.701 19.362 382.38C17.905 384.821 16.7207 387.949 18.1557 390.402C19.31 392.376 21.7365 393.147 23.9618 393.673C26.7745 394.338 29.6968 394.87 32.542 394.362C35.3871 393.854 38.1677 392.112 39.1822 389.406C39.3815 388.725 39.6186 388.056 39.8921 387.402C41.4342 384.366 46.2712 384.333 47.8494 381.316C48.9539 379.204 47.9386 376.652 46.9238 374.496L43.8242 367.911C42.7955 365.726 38.6257 366.982 36.4518 366.459C33.6167 365.776 30.686 365.023 28.6464 367.805Z" fill="#2F2E41"/>
<path d="M6.00446 156.389L34.4888 200.472C34.4888 200.472 52.1219 222.853 57.5475 212.68C62.9731 202.507 38.558 185.552 38.558 185.552L20.2466 151.642L6.00446 156.389Z" fill="#FFB8B8"/>
<path d="M20.2466 73.6491L14.821 72.2927C14.821 72.2927 3.96988 75.6837 1.25709 89.9258C-1.45569 104.168 0.578894 161.137 3.96988 161.815C7.36087 162.493 20.7179 151.895 22.856 154.142C24.994 156.389 18.212 144.86 20.2466 138.756C22.2812 132.652 20.2466 73.6491 20.2466 73.6491Z" fill="#2F2E41"/>
<path d="M275.229 103.922H257.701V108.142H275.229V103.922Z" fill="#DE7673"/>
<path d="M335.931 103.922H329.763V108.142H335.931V103.922Z" fill="#DE7673"/>
<path d="M348.266 103.922H342.098V108.142H348.266V103.922Z" fill="#DE7673"/>
<path d="M323.271 103.922H281.397V108.142H323.271V103.922Z" fill="#DE7673"/>
<path d="M253.156 131.189H235.627V135.409H253.156V131.189Z" fill="#DE7673"/>
<path d="M313.857 131.189H307.69V135.409H313.857V131.189Z" fill="#DE7673"/>
<path d="M326.192 131.189H320.025V135.409H326.192V131.189Z" fill="#DE7673"/>
<path d="M301.198 131.189H259.324V135.409H301.198V131.189Z" fill="#DE7673"/>
<path d="M325.543 113.336H308.015V117.555H325.543V113.336Z" fill="#DE7673"/>
<path d="M349.24 113.336H331.711V117.555H349.24V113.336Z" fill="#DE7673"/>
<path d="M241.795 113.336H235.627V117.555H241.795V113.336Z" fill="#DE7673"/>
<path d="M254.13 113.336H247.962V117.555H254.13V113.336Z" fill="#DE7673"/>
<path d="M302.172 113.336H260.297V117.555H302.172V113.336Z" fill="#DE7673"/>
<path d="M289.187 122.425H271.659V126.644H289.187V122.425Z" fill="#DE7673"/>
<path d="M265.491 122.425H247.962V126.644H265.491V122.425Z" fill="#DE7673"/>
<path d="M241.795 122.425H235.627V126.644H241.795V122.425Z" fill="#DE7673"/>
<path d="M349.24 122.425H343.072V126.644H349.24V122.425Z" fill="#DE7673"/>
<path d="M336.904 122.425H295.03V126.644H336.904V122.425Z" fill="#DE7673"/>
</svg>
